<svg width="22" height="31" viewBox="0 0 22 31" fill="none" xmlns="http://www.w3.org/2000/svg">
<path d="M4.03376 0H16.6721L17.3231 5.19896C18.2583 5.32008 19.1175 5.77687 19.74 6.48402C20.3625 7.19117 20.7059 8.10032 20.7059 9.04167V11.625H22V19.375H20.7059V21.9583C20.7059 22.8997 20.3625 23.8088 19.74 24.516C19.1175 25.2231 18.2583 25.6799 17.3231 25.801L16.6721 31H4.03376L3.38282 25.801C2.44753 25.6799 1.5884 25.2231 0.965874 24.516C0.343353 23.8088 2.00248e-05 22.8997 0 21.9583V9.04167C2.00248e-05 8.10032 0.343353 7.19117 0.965874 6.48402C1.5884 5.77687 2.44753 5.32008 3.38282 5.19896L4.03376 0ZM5.99565 5.16667H14.7102L14.3867 2.58333H6.31918L5.99565 5.16667ZM3.88235 23.25H16.8235C17.1668 23.25 17.4959 23.1139 17.7386 22.8717C17.9813 22.6294 18.1176 22.3009 18.1176 21.9583V9.04167C18.1176 8.6991 17.9813 8.37055 17.7386 8.12832C17.4959 7.88609 17.1668 7.75 16.8235 7.75H3.88235C3.53913 7.75 3.20997 7.88609 2.96727 8.12832C2.72458 8.37055 2.58824 8.6991 2.58824 9.04167V21.9583C2.58824 22.3009 2.72458 22.6294 2.96727 22.8717C3.20997 23.1139 3.53913 23.25 3.88235 23.25ZM5.99565 25.8333L6.31918 28.4167H14.3867L14.7102 25.8333H5.99565Z" fill="#FAF1F1"/>
</svg>
