<svg width="27" height="23" viewBox="0 0 27 23" fill="none" xmlns="http://www.w3.org/2000/svg">
<path d="M2.295 20.125C1.64131 20.125 1.09563 19.9036 0.657947 19.4609C0.220263 19.0181 0.000947368 18.4656 0 17.8034V2.32156C0 1.66031 0.219316 1.10831 0.657947 0.665562C1.09658 0.222812 1.64226 0.000958333 2.295 0H9.37326L12.2154 2.875H23.2839C23.9376 2.875 24.4833 3.09685 24.921 3.54056C25.3587 3.98427 25.578 4.53627 25.5789 5.19656V8.58619C25.3478 8.50473 25.1123 8.4525 24.8727 8.4295C24.633 8.4065 24.3947 8.40362 24.1579 8.42087V5.19656C24.1579 4.97615 24.0669 4.77346 23.885 4.5885C23.7031 4.40354 23.5028 4.31154 23.2839 4.3125H11.6455L8.80341 1.4375H2.295C2.04016 1.4375 1.83079 1.5204 1.66689 1.68619C1.503 1.85198 1.42105 2.06377 1.42105 2.32156V17.8034C1.42105 18.0239 1.512 18.2265 1.69389 18.4115C1.87579 18.5965 2.07616 18.6885 2.295 18.6875H12.6033L12.5706 18.7206V20.125H2.295ZM15.9598 23V19.8231L23.5369 12.1943C23.678 12.0525 23.8239 11.9566 23.9746 11.9068C24.1261 11.857 24.2777 11.8321 24.4293 11.8321C24.5856 11.8321 24.7438 11.8627 24.9039 11.9241C25.064 11.9854 25.2052 12.0779 25.3274 12.2015L26.6419 13.5599C26.7584 13.7018 26.8475 13.8489 26.909 14.0012C26.9706 14.1536 27.0009 14.307 27 14.4613C26.999 14.6155 26.9697 14.7698 26.9119 14.9241C26.8541 15.0784 26.7641 15.227 26.6419 15.3698L19.0989 23H15.9598ZM17.216 21.7278H18.566L23.4942 16.7354L22.8263 16.0526L22.1798 15.3511L17.216 20.3622V21.7278ZM22.8263 16.0526L22.1798 15.3511L23.4942 16.7354L22.8263 16.0526Z" fill="#FAF1F1"/>
</svg>
