<svg width="27" height="29" viewBox="0 0 27 29" fill="none" xmlns="http://www.w3.org/2000/svg">
<path d="M16.0005 12H23.0005V14H16.0005V12ZM16.0005 7H27.0005V9H16.0005V7ZM16.0005 2H27.0005V4H16.0005V2ZM8.00049 29H4.00049C3.47054 28.9984 2.96275 28.7872 2.58802 28.4125C2.21329 28.0377 2.00207 27.5299 2.00049 27V20C1.47054 19.9984 0.962751 19.7872 0.58802 19.4125C0.21329 19.0377 0.00206816 18.5299 0.000485433 18V12C-0.00670177 11.6041 0.0659852 11.2107 0.214205 10.8435C0.362424 10.4763 0.583136 10.1427 0.863156 9.86267C1.14318 9.58265 1.47676 9.36194 1.84399 9.21372C2.21121 9.0655 2.60454 8.99281 3.00049 9H9.00049C9.39643 8.99281 9.78976 9.0655 10.157 9.21372C10.5242 9.36194 10.8578 9.58265 11.1378 9.86267C11.4178 10.1427 11.6385 10.4763 11.7868 10.8435C11.935 11.2107 12.0077 11.6041 12.0005 12V18C11.9989 18.5299 11.7877 19.0377 11.413 19.4125C11.0382 19.7872 10.5304 19.9984 10.0005 20V27C9.9989 27.5299 9.78768 28.0377 9.41295 28.4125C9.03822 28.7872 8.53043 28.9984 8.00049 29ZM3.00049 11C2.86707 10.992 2.73347 11.0124 2.60851 11.0598C2.48355 11.1072 2.37007 11.1806 2.27557 11.2751C2.18106 11.3696 2.10767 11.4831 2.06026 11.608C2.01284 11.733 1.99247 11.8666 2.00049 12V18H4.00049V27H8.00049V18H10.0005V12C10.0085 11.8666 9.98813 11.733 9.94072 11.608C9.8933 11.4831 9.81991 11.3696 9.7254 11.2751C9.6309 11.1806 9.51742 11.1072 9.39246 11.0598C9.2675 11.0124 9.1339 10.992 9.00049 11H3.00049ZM6.00049 8C5.20936 8 4.436 7.76541 3.7782 7.32588C3.12041 6.88635 2.60772 6.26164 2.30497 5.53074C2.00222 4.79983 1.923 3.99556 2.07734 3.21964C2.23169 2.44372 2.61265 1.73098 3.17206 1.17157C3.73147 0.612165 4.4442 0.231202 5.22012 0.0768607C5.99605 -0.0774802 6.80032 0.00173312 7.53122 0.304484C8.26212 0.607234 8.88684 1.11992 9.32636 1.77772C9.76589 2.43552 10.0005 3.20888 10.0005 4C9.99732 5.05989 9.57488 6.07547 8.82542 6.82493C8.07596 7.57439 7.06038 7.99684 6.00049 8ZM6.00049 2C5.60492 2 5.21824 2.1173 4.88935 2.33706C4.56045 2.55683 4.3041 2.86918 4.15273 3.23463C4.00135 3.60009 3.96174 4.00222 4.03891 4.39018C4.11609 4.77814 4.30657 5.13451 4.58627 5.41422C4.86598 5.69392 5.22234 5.8844 5.6103 5.96157C5.99827 6.03874 6.4004 5.99914 6.76585 5.84776C7.1313 5.69639 7.44366 5.44004 7.66342 5.11114C7.88319 4.78224 8.00049 4.39556 8.00049 4C7.9989 3.47006 7.78768 2.96227 7.41295 2.58754C7.03822 2.21281 6.53043 2.00158 6.00049 2Z" fill="#FAF1F1"/>
</svg>
