<svg width="27" height="26" viewBox="0 0 27 26" fill="none" xmlns="http://www.w3.org/2000/svg">
<path d="M13.6286 12.5711H1C1 18.8622 8.9164 24.2713 8.9164 24.2713H13.6286" stroke="#FAF1F1" stroke-width="0.583333" stroke-linecap="round" stroke-linejoin="round"/>
<path d="M4.67517 14.0087C4.67517 18.6451 9.88223 22.0664 9.88223 22.0664M13.6285 12.5711H18.9428H24.257V15H13.6285V24.2713M6.8664 12.5711C5.94758 9.13138 12.0912 6.76677 17.6041 6.03636L18.1434 5.04382L20.3168 7.68558L19.1243 7.87945C18.5407 9.79762 15.619 12.5711 15.619 12.5711" stroke="#FAF1F1" stroke-width="0.583333" stroke-linecap="round" stroke-linejoin="round"/>
<path d="M7.83301 12.5711C8.0296 10.8004 10.0829 8.80715 17.9167 6.41455" stroke="#FAF1F1" stroke-width="0.583333" stroke-linecap="round" stroke-linejoin="round"/>
<path d="M18.1189 6.66097C15.1563 8.145 11.7022 9.8502 9.28162 12.5711M18.6971 7.36203C15.6184 11.5438 13.6286 12.5711 13.6286 12.5711M11.9254 12.5711C13.7822 11.4858 18.4035 7.00501 18.4035 7.00501M19.8248 7.0999L25.3888 2.59116C25.4803 2.51721 25.5563 2.42594 25.6125 2.32257C25.6686 2.2192 25.7038 2.10577 25.716 1.98878C25.7283 1.87178 25.7173 1.75352 25.6838 1.64077C25.6502 1.52803 25.5948 1.423 25.5206 1.33172C25.4466 1.24034 25.3554 1.16443 25.2521 1.10835C25.1488 1.05226 25.0354 1.01709 24.9185 1.00486C24.8016 0.992622 24.6834 1.00356 24.5707 1.03704C24.4581 1.07052 24.3531 1.12588 24.2618 1.19997L18.6971 5.70871" stroke="#FAF1F1" stroke-width="0.583333" stroke-linecap="round" stroke-linejoin="round"/>
<path d="M17.6049 6.03638L19.1244 7.87946" stroke="#FAF1F1" stroke-width="0.583333" stroke-linecap="round" stroke-linejoin="round"/>
<path d="M23.573 23.9423L23.573 23.9423C22.8938 24.3257 21.9803 24.54 21 24.54C20.0197 24.54 19.1062 24.3257 18.427 23.9423L18.427 23.9423C17.7769 23.5755 17.4478 23.1158 17.4478 22.66V21.7346C17.6401 21.9324 17.8797 22.1132 18.1619 22.2735L18.1622 22.2737C18.928 22.7059 19.937 22.9413 21 22.9413C22.063 22.9413 23.072 22.7059 23.8379 22.2737C24.1199 22.1145 24.3597 21.9348 24.5522 21.7362V22.66C24.5522 23.1158 24.2231 23.5755 23.573 23.9423ZM23.573 21.7823L23.573 21.7823C22.8938 22.1657 21.9803 22.38 21 22.38C20.0197 22.38 19.1062 22.1657 18.427 21.7823L18.427 21.7823C17.7769 21.4155 17.4478 20.9558 17.4478 20.5V19.5746C17.6401 19.7724 17.8797 19.9532 18.1619 20.1135L18.1622 20.1137C18.928 20.5459 19.937 20.7814 21 20.7814C22.063 20.7814 23.072 20.5459 23.8379 20.1137C24.1199 19.9545 24.3597 19.7748 24.5522 19.5762V20.5C24.5522 20.9558 24.2231 21.4155 23.573 21.7823ZM23.573 19.6223L23.573 19.6223C22.8938 20.0057 21.9803 20.22 21 20.22C20.0197 20.22 19.1062 20.0057 18.427 19.6223L18.427 19.6223C17.7769 19.2555 17.4478 18.7958 17.4478 18.34C17.4478 17.8842 17.7769 17.4245 18.427 17.0577L18.427 17.0577C19.1062 16.6743 20.0197 16.46 21 16.46C21.9803 16.46 22.8938 16.6743 23.573 17.0577L23.573 17.0577C24.2231 17.4245 24.5522 17.8842 24.5522 18.34C24.5522 18.7958 24.2231 19.2555 23.573 19.6223ZM23.8379 16.5677C23.072 16.1354 22.0639 15.9 21 15.9C19.9361 15.9 18.928 16.1354 18.1622 16.5677C17.3632 17.0186 16.9 17.6448 16.9 18.34V22.66C16.9 23.3552 17.3632 23.9814 18.1621 24.4323C18.928 24.8646 19.937 25.1 21 25.1C22.063 25.1 23.072 24.8646 23.8379 24.4323C24.6382 23.9813 25.1 23.3552 25.1 22.66V18.34C25.1 17.6448 24.6368 17.0186 23.8379 16.5677Z" fill="#FAF1F1" stroke="#FAF1F1" stroke-width="0.2"/>
</svg>
