<svg width="21" height="28" viewBox="0 0 21 28" fill="none" xmlns="http://www.w3.org/2000/svg">
<path d="M18.375 4.375H18.2262V6.125H18.375C18.6071 6.125 18.8296 6.21719 18.9937 6.38128C19.1578 6.54538 19.25 6.76794 19.25 7V24.5C19.25 24.7321 19.1578 24.9546 18.9937 25.1187C18.8296 25.2828 18.6071 25.375 18.375 25.375H2.625C2.39294 25.375 2.17038 25.2828 2.00628 25.1187C1.84219 24.9546 1.75 24.7321 1.75 24.5V7C1.75 6.76794 1.84219 6.54538 2.00628 6.38128C2.17038 6.21719 2.39294 6.125 2.625 6.125H2.77375V4.375H2.625C1.92881 4.375 1.26113 4.65156 0.768845 5.14384C0.276562 5.63613 0 6.30381 0 7V24.5C0 25.1962 0.276562 25.8639 0.768845 26.3562C1.26113 26.8484 1.92881 27.125 2.625 27.125H18.375C19.0712 27.125 19.7389 26.8484 20.2312 26.3562C20.7234 25.8639 21 25.1962 21 24.5V7C21 6.30381 20.7234 5.63613 20.2312 5.14384C19.7389 4.65156 19.0712 4.375 18.375 4.375Z" fill="#FAF1F1"/>
<path d="M16.625 2.625H14V0H7V2.625H4.375V7.875H16.625V2.625ZM14.875 6.125H6.125V4.375H8.75V1.75H12.25V4.375H14.875V6.125Z" fill="#FAF1F1"/>
<path d="M5.25 11.375H15.75V13.125H5.25V11.375ZM5.25 15.75H15.75V17.5H5.25V15.75ZM5.25 20.125H15.75V21.875H5.25V20.125Z" fill="#FAF1F1"/>
</svg>
