<svg width="30" height="30" viewBox="0 0 30 30" fill="none" xmlns="http://www.w3.org/2000/svg">
<path d="M27.3413 18.0517L27.2699 17.3417L27.2484 17.3431L27.2242 17.3474L27.3413 18.0517ZM27.3413 18.0517L27.4127 18.7632L27.437 18.7604L27.4599 18.7561L27.3413 18.0517ZM21.5696 25.8839L22.0225 25.331L22.0153 25.3267L21.5696 25.8839ZM21.5696 25.8839L21.1167 26.4368L21.1239 26.4425L21.5696 25.8839ZM8.43183 25.8839L7.97895 25.3324L7.96895 25.341L7.95752 25.351L8.43183 25.8839ZM8.43183 25.8839L8.88471 26.4382L8.89614 26.4282L8.90614 26.4197L8.43183 25.8839ZM2.6587 11.9483V11.2339H2.62441L2.58869 11.2368L2.6587 11.9483ZM2.6587 11.9483V12.6626H2.69441L2.73013 12.6583L2.6587 11.9483ZM18.7609 2.58596C18.7395 2.32691 18.7095 2.06865 18.6709 1.8116C18.6382 1.58415 18.5697 1.36331 18.468 1.15725L17.198 1.81303C17.2122 1.8416 17.2365 1.89875 17.2608 2.04734C17.288 2.2045 17.308 2.4088 17.3408 2.7274L18.7609 2.58596ZM19.0409 4.3047C19.0238 4.28327 18.9723 4.19611 18.9166 3.89037C18.8501 3.45748 18.8001 3.02242 18.7637 2.58596L17.3408 2.7274C17.398 3.30031 17.4451 3.77465 17.5108 4.14325C17.5751 4.50329 17.6751 4.87046 17.9051 5.17192L19.0409 4.3047ZM19.7038 4.57901C19.5789 4.59581 19.4518 4.57928 19.3354 4.53111C19.219 4.48293 19.1174 4.40482 19.0409 4.3047L17.9037 5.17049C18.1331 5.47136 18.4381 5.70611 18.7877 5.85091C19.1372 5.9957 19.5188 6.04537 19.8938 5.99486L19.7038 4.57901ZM21.1153 3.56034C20.651 3.9418 20.3338 4.2004 20.0838 4.37327C19.8281 4.55043 19.7295 4.57472 19.7038 4.57901L19.8938 5.99486C20.2681 5.94485 20.5981 5.75626 20.8996 5.54624C21.2067 5.33194 21.5739 5.03191 22.021 4.66616L21.1153 3.56034ZM22.3325 2.75883C22.1039 2.8317 21.911 2.94742 21.7282 3.07744C21.551 3.20316 21.3496 3.36889 21.1153 3.56034L22.021 4.66616C22.2682 4.46328 22.4282 4.33327 22.5568 4.24183C22.6206 4.19039 22.6919 4.14896 22.7682 4.11896L22.3325 2.75883ZM23.8368 2.83313C23.3609 2.62714 22.8264 2.60074 22.3325 2.75883L22.7682 4.11896C22.9325 4.06693 23.1101 4.07606 23.2683 4.14468L23.8368 2.83313ZM24.9683 3.75321C24.754 3.53891 24.5697 3.35318 24.4069 3.21031C24.2379 3.05535 24.0455 2.92806 23.8368 2.83313L23.2683 4.14468C23.2983 4.15754 23.3525 4.18754 23.4668 4.28755C23.5854 4.39042 23.7311 4.53615 23.9583 4.76331L24.9683 3.75321ZM26.2441 5.02905L24.9683 3.75321L23.9583 4.76331L25.2341 6.03915L26.2441 5.02905ZM27.1641 6.16059C27.0687 5.95184 26.941 5.75945 26.7856 5.59053C26.6427 5.42766 26.457 5.24336 26.2441 5.02905L25.2341 6.03915C25.4612 6.26631 25.6055 6.41204 25.7112 6.53062C25.8112 6.64492 25.8398 6.69921 25.8527 6.72921L27.1641 6.16059ZM27.2384 7.66502C27.3965 7.17107 27.3701 6.63655 27.1641 6.16059L25.8527 6.72921C25.9208 6.88751 25.9294 7.0651 25.8769 7.22926L27.2384 7.66502ZM26.437 8.88227C26.6284 8.64797 26.7941 8.44652 26.9199 8.26936C27.0484 8.08648 27.1656 7.89361 27.2384 7.66502L25.8769 7.22926C25.8474 7.30549 25.8065 7.37678 25.7555 7.44071C25.6194 7.62347 25.4779 7.80213 25.3312 7.97647L26.437 8.88227ZM25.4184 10.2938C25.4226 10.2681 25.4469 10.1695 25.6241 9.9138C25.7969 9.66378 26.0555 9.3466 26.437 8.88227L25.3312 7.97647C24.9655 8.42366 24.664 8.79084 24.4512 9.09801C24.2412 9.39804 24.0526 9.7295 24.0026 10.1038L25.4184 10.2938ZM25.6927 10.9568C25.5925 10.8803 25.5144 10.7787 25.4662 10.6622C25.4181 10.5458 25.4016 10.4187 25.4184 10.2938L24.0026 10.1038C23.9523 10.4786 24.0021 10.8599 24.1469 11.2092C24.2917 11.5585 24.5263 11.8633 24.8269 12.0926L25.6927 10.9568ZM27.4113 11.2354C26.8127 11.1753 26.407 11.1353 26.107 11.0811C25.8012 11.0253 25.7141 10.9739 25.6927 10.9568L24.8269 12.0926C25.1269 12.3212 25.4941 12.4212 25.8555 12.4869C26.2227 12.5526 26.6956 12.6012 27.2699 12.6583L27.4113 11.2354ZM28.8399 11.5297C28.6339 11.428 28.4131 11.3595 28.1856 11.3268C27.9713 11.2911 27.7113 11.2654 27.4113 11.2354L27.2684 12.6569C27.5885 12.6898 27.7927 12.7098 27.9499 12.7369C28.0307 12.746 28.1097 12.7672 28.1842 12.7998L28.8399 11.5297ZM29.85 12.6455C29.6593 12.1637 29.3005 11.7673 28.8399 11.5297L28.1842 12.7998C28.3378 12.8788 28.4576 13.0107 28.5214 13.1713L29.85 12.6455ZM30 14.0956C30 13.7942 30 13.5327 29.9857 13.3156C29.9761 13.0864 29.9303 12.8603 29.85 12.6455L28.5214 13.1713C28.5328 13.2013 28.5499 13.2613 28.5599 13.4113C28.5711 13.6397 28.5749 13.8684 28.5714 14.0971L30 14.0956ZM30 15.9015V14.0956H28.5714V15.9015H30ZM29.85 17.3502C29.9386 17.1273 29.9714 16.9045 29.9857 16.6802C30 16.4644 30 16.203 30 15.9015H28.5714C28.5714 16.2215 28.5714 16.4273 28.5599 16.5859C28.5592 16.6674 28.5462 16.7483 28.5214 16.8259L29.85 17.3502ZM28.8399 18.4675C29.3007 18.2295 29.6596 17.8326 29.85 17.3502L28.5214 16.8259C28.4576 16.9864 28.3378 17.1184 28.1842 17.1974L28.8399 18.4675ZM27.4113 18.7618C27.7113 18.7318 27.9728 18.7046 28.1856 18.6689C28.4071 18.6332 28.6256 18.5775 28.8385 18.4689L28.1842 17.1974C28.1097 17.23 28.0307 17.2512 27.9499 17.2602C27.7927 17.2874 27.5885 17.3074 27.2699 17.3402L27.4113 18.7618ZM25.6941 19.0404C25.7155 19.0232 25.8027 18.9704 26.1084 18.9161C26.4084 18.8618 26.8141 18.8204 27.4113 18.7618L27.2699 17.3402C26.697 17.3974 26.2227 17.4431 25.8541 17.5102C25.4941 17.5745 25.1283 17.6745 24.8269 17.9031L25.6941 19.0404ZM25.4184 19.7033C25.4017 19.5783 25.4185 19.4511 25.4669 19.3347C25.5153 19.2182 25.5937 19.1167 25.6941 19.0404L24.8269 17.9031C24.526 18.1326 24.2913 18.4376 24.1465 18.7871C24.0017 19.1367 23.9521 19.5183 24.0026 19.8933L25.4184 19.7033ZM26.437 21.1149C26.1543 20.7804 25.8831 20.4364 25.6241 20.0833C25.4469 19.829 25.4226 19.729 25.4184 19.7033L24.004 19.8948C24.054 20.2691 24.2426 20.5977 24.4512 20.8991C24.6655 21.2049 24.9655 21.5735 25.3312 22.0192L26.437 21.1149ZM27.2384 22.3321C27.1648 22.1147 27.0572 21.9103 26.9199 21.7264C26.7653 21.5175 26.6043 21.3136 26.437 21.1149L25.3312 22.0192C25.5341 22.2678 25.6641 22.4264 25.7555 22.5564C25.8063 22.6199 25.8472 22.6907 25.8769 22.7665L27.2384 22.3321ZM27.1641 23.8366C27.3701 23.3606 27.3965 22.8261 27.2384 22.3321L25.8769 22.7665C25.9298 22.931 25.9212 23.1092 25.8527 23.2679L27.1641 23.8366ZM26.2455 24.9667C26.4584 24.7538 26.6427 24.5695 26.7856 24.4066C26.9341 24.2366 27.0684 24.058 27.1641 23.8366L25.8527 23.2679C25.8153 23.3405 25.7671 23.407 25.7098 23.4651C25.5562 23.6336 25.3975 23.7975 25.2341 23.9566L26.2455 24.9667ZM24.9683 26.2439L26.2455 24.9667L25.2341 23.9566L23.9583 25.2338L24.9683 26.2439ZM23.8368 27.1626C24.0569 27.0669 24.2369 26.934 24.4069 26.7854C24.5697 26.6425 24.754 26.4568 24.9683 26.2425L23.9583 25.2338C23.7311 25.461 23.5854 25.6053 23.4668 25.7096C23.4082 25.767 23.3413 25.8151 23.2683 25.8525L23.8368 27.1626ZM22.3325 27.2383C22.8266 27.3959 23.3611 27.369 23.8368 27.1626L23.2683 25.8525C23.11 25.9206 22.9324 25.9292 22.7682 25.8768L22.3325 27.2383ZM21.1153 26.4354C21.3496 26.6268 21.551 26.7926 21.7282 26.9183C21.911 27.0483 22.1039 27.1654 22.3325 27.2383L22.7682 25.8768C22.692 25.8472 22.6207 25.8063 22.5568 25.7553C22.374 25.6188 22.1954 25.4768 22.021 25.3296L21.1153 26.4354ZM19.7038 25.4181C19.7295 25.421 19.8295 25.4467 20.0838 25.6239C20.3338 25.7967 20.651 26.0553 21.1153 26.4354L22.021 25.3296C21.5739 24.9652 21.2067 24.6638 20.8996 24.4495C20.5996 24.2409 20.2681 24.0523 19.8938 24.0023L19.7038 25.4181ZM19.0409 25.6924C19.1174 25.5923 19.219 25.5142 19.3354 25.466C19.4518 25.4179 19.5789 25.4013 19.7038 25.4181L19.8938 24.0023C19.5192 23.9519 19.1379 24.0015 18.7887 24.146C18.4394 24.2905 18.1346 24.5248 17.9051 24.8252L19.0409 25.6924ZM18.7623 27.4112C18.8223 26.8126 18.8623 26.4068 18.9166 26.1068C18.9723 25.801 19.0238 25.7139 19.0409 25.6924L17.9051 24.8252C17.6766 25.1253 17.5766 25.4939 17.5108 25.8539C17.4451 26.2211 17.3965 26.694 17.3394 27.2683L18.7623 27.4112ZM18.468 28.8399C18.578 28.6256 18.6323 28.407 18.6695 28.1855C18.7066 27.9712 18.7323 27.7112 18.7623 27.4112L17.3394 27.2683C17.3196 27.4962 17.2943 27.7235 17.2608 27.9498C17.2517 28.0306 17.2306 28.1096 17.198 28.1841L18.468 28.8399ZM17.3523 29.85C17.8341 29.6593 18.2304 29.3004 18.468 28.8399L17.198 28.1841C17.119 28.3377 16.987 28.4575 16.8265 28.5213L17.3523 29.85ZM15.9022 30C16.2036 30 16.4651 30 16.6822 29.9857C16.9051 29.9714 17.1294 29.9386 17.3523 29.85L16.8265 28.5213C16.7489 28.5461 16.668 28.5592 16.5865 28.5599C16.4294 28.5713 16.2222 28.5713 15.9008 28.5713L15.9022 30ZM14.0964 30H15.9022L15.9008 28.5713H14.0964V30ZM12.6463 29.85C12.8706 29.9386 13.0935 29.9714 13.3178 29.9857C13.5335 30 13.7949 30 14.0964 30V28.5713C13.7764 28.5713 13.5706 28.5713 13.4121 28.5599C13.3306 28.5591 13.2497 28.5461 13.1721 28.5213L12.6463 29.85ZM11.5305 28.8399C11.7681 29.3004 12.1645 29.6593 12.6463 29.85L13.1721 28.5213C13.0116 28.4575 12.8796 28.3377 12.8006 28.1841L11.5305 28.8399ZM11.2362 27.4112C11.2663 27.7112 11.2934 27.9727 11.3277 28.1855C11.3648 28.407 11.4205 28.6256 11.5305 28.8399L12.8006 28.1841C12.768 28.1096 12.7468 28.0306 12.7377 27.9498C12.7043 27.724 12.6776 27.4972 12.6577 27.2697L11.2362 27.4112ZM10.9577 25.6924C10.9748 25.7139 11.0262 25.801 11.082 26.1068C11.1362 26.4068 11.1762 26.814 11.2362 27.4112L12.6577 27.2697C12.6006 26.6968 12.5535 26.2225 12.4877 25.8539C12.4234 25.4939 12.3234 25.1267 12.0934 24.8252L10.9577 25.6924ZM10.2948 25.4181C10.4196 25.4013 10.5467 25.4179 10.6632 25.466C10.7796 25.5142 10.8812 25.5923 10.9577 25.6924L12.0934 24.8252C11.8641 24.5246 11.5594 24.2914 11.2101 24.1466C10.8609 24.0018 10.4795 23.952 10.1048 24.0023L10.2948 25.4181ZM8.88328 26.4368C9.34759 26.0553 9.66475 25.7967 9.91476 25.6239C10.1705 25.4467 10.2691 25.421 10.2948 25.4181L10.1048 24.0023C9.73046 24.0523 9.40045 24.2409 9.099 24.4509C8.79185 24.6638 8.42469 24.9652 7.97752 25.331L8.88328 26.4368ZM7.66608 27.2383C7.89466 27.1654 8.08753 27.0497 8.27039 26.9197C8.44754 26.794 8.64898 26.6282 8.88328 26.4368L7.97752 25.331C7.80319 25.4777 7.62453 25.6192 7.44178 25.7553C7.37788 25.8063 7.30658 25.8473 7.23034 25.8768L7.66608 27.2383ZM6.16172 27.1654C6.63767 27.3714 7.17216 27.3964 7.66608 27.2383L7.23034 25.8768C7.0662 25.9292 6.88861 25.9206 6.73032 25.8525L6.16172 27.1654ZM5.03024 26.2439C5.24454 26.4582 5.42883 26.644 5.59169 26.7868C5.76027 26.934 5.94171 27.0697 6.16172 27.1654L6.73032 25.8525C6.65725 25.8152 6.59029 25.767 6.53174 25.7096C6.36326 25.5559 6.19937 25.3972 6.04029 25.2338L5.03024 26.2439ZM3.75446 24.9681L5.03024 26.2439L6.04029 25.2338L4.76451 23.958L3.75446 24.9681ZM2.83442 23.8366C2.93014 24.0566 3.06443 24.2366 3.21301 24.4066C3.35587 24.5695 3.5416 24.7538 3.75446 24.9681L4.76451 23.958C4.60063 23.7989 4.4415 23.635 4.28735 23.4665C4.22995 23.4079 4.18178 23.341 4.14448 23.2679L2.83442 23.8366ZM2.76013 22.3321C2.60205 22.8261 2.62844 23.3606 2.83442 23.8366L4.14448 23.2679C4.07587 23.1098 4.06816 22.9322 4.1202 22.7679L2.76013 22.3321ZM3.5616 21.1149C3.37016 21.3492 3.20444 21.5506 3.07872 21.7278C2.94147 21.9113 2.83395 22.1152 2.76013 22.3321L4.1202 22.7679C4.15019 22.6916 4.19162 22.6203 4.24306 22.5564C4.33449 22.4278 4.4645 22.2678 4.66737 22.0207L3.5616 21.1149ZM4.58022 19.7033C4.57593 19.729 4.55164 19.8276 4.37449 20.0833C4.2002 20.3334 3.94304 20.6505 3.5616 21.1149L4.66737 22.0207C5.0331 21.5735 5.33454 21.2063 5.54741 20.8991C5.75742 20.5991 5.946 20.2676 5.996 19.8933L4.58022 19.7033ZM4.30592 19.0404C4.40604 19.1169 4.48415 19.2185 4.53232 19.3349C4.58049 19.4513 4.59702 19.5784 4.58022 19.7033L5.996 19.8933C6.04624 19.5186 5.99645 19.1372 5.85167 18.7879C5.7069 18.4386 5.47229 18.1339 5.17167 17.9046L4.30592 19.0404ZM2.58727 18.7632C3.18587 18.8218 3.5916 18.8618 3.89161 18.9161C4.19734 18.9718 4.28449 19.0232 4.30592 19.0404L5.17167 17.9031C4.87166 17.6745 4.5045 17.5745 4.14305 17.5102C3.77589 17.4445 3.30301 17.3959 2.7287 17.3388L2.58727 18.7632ZM1.15863 18.4675C1.37292 18.5775 1.5915 18.6318 1.81294 18.6689C2.02724 18.7061 2.28582 18.7332 2.58727 18.7632L2.73013 17.3402C2.50222 17.3204 2.27497 17.2937 2.04867 17.2602C1.96786 17.2511 1.88888 17.2299 1.81437 17.1974L1.15863 18.4675ZM0.148578 17.3502C0.338998 17.8326 0.697861 18.2295 1.15863 18.4675L1.81437 17.1974C1.66078 17.1184 1.541 16.9864 1.47721 16.8259L0.148578 17.3502ZM0 15.9044C0 16.2058 -1.33052e-08 16.4673 0.0142864 16.6844C0.0235323 16.9131 0.0693531 17.1389 0.150007 17.3531L1.47864 16.8287C1.45381 16.7511 1.4408 16.6702 1.44007 16.5887C1.42945 16.3603 1.42564 16.1316 1.42864 15.9029L0 15.9044ZM0 14.0985V15.9044H1.42864V14.0985H0ZM0.150007 12.6483C0.0696651 12.8636 0.0238595 13.0903 0.0142864 13.3198C-1.33052e-08 13.5356 0 13.797 0 14.0985H1.42864C1.42864 13.7785 1.42864 13.5727 1.44007 13.4141C1.44076 13.3326 1.45376 13.2517 1.47864 13.1741L0.150007 12.6483ZM1.16006 11.5325C0.699547 11.7701 0.340717 12.1665 0.150007 12.6483L1.47864 13.1741C1.54243 13.0136 1.6622 12.8816 1.8158 12.8026L1.16006 11.5325ZM2.58869 11.2368C2.28868 11.2668 2.02724 11.2954 1.81437 11.3297C1.58693 11.3623 1.3661 11.4308 1.16006 11.5325L1.8158 12.8026C1.84437 12.7884 1.90152 12.7641 2.0501 12.7398C2.20725 12.7126 2.41154 12.6926 2.73013 12.6598L2.58869 11.2368ZM4.30735 10.9596C4.28592 10.9768 4.19877 11.0282 3.89304 11.0839C3.59303 11.1382 3.18729 11.1768 2.58869 11.2368L2.73013 12.6598C3.30301 12.6026 3.77875 12.5555 4.14591 12.4898C4.50736 12.4255 4.87452 12.3255 5.17453 12.0954L4.30735 10.9596ZM4.58165 10.2967C4.59845 10.4216 4.58192 10.5487 4.53375 10.6651C4.48558 10.7815 4.40747 10.8831 4.30735 10.9596L5.17453 12.0954C5.47489 11.866 5.70922 11.5611 5.85374 11.2119C5.99826 10.8626 6.04783 10.4799 5.99743 10.1052L4.58165 10.2967ZM3.56303 8.8837C3.94447 9.34946 4.20306 9.66664 4.37735 9.91666C4.5545 10.1724 4.57736 10.271 4.58165 10.2967L5.99743 10.1052C5.94743 9.73093 5.75885 9.40232 5.54884 9.10087C5.33597 8.79369 5.03453 8.42652 4.66879 7.97933L3.56303 8.8837ZM2.76156 7.66644C2.83299 7.89504 2.95014 8.08934 3.08015 8.27222C3.20587 8.44795 3.37159 8.65082 3.56303 8.8837L4.66879 7.97933C4.52206 7.80451 4.38056 7.62537 4.24449 7.44214C4.19318 7.37873 4.15175 7.30792 4.12163 7.23212L2.76156 7.66644ZM2.83585 6.16344C2.63023 6.63899 2.60384 7.17294 2.76156 7.66644L4.12163 7.23212C4.06959 7.06779 4.07872 6.89019 4.14734 6.73207L2.83585 6.16344ZM3.75589 5.03191C3.5416 5.24478 3.35587 5.42909 3.21301 5.59339C3.05808 5.76238 2.9308 5.95477 2.83585 6.16344L4.14734 6.73207C4.18474 6.65951 4.2329 6.59161 4.2902 6.53348C4.44325 6.36439 4.60192 6.20047 4.76594 6.042L3.75589 5.03191ZM5.03167 3.75464L3.75589 5.03191L4.76594 6.042L6.04172 4.76474L5.03167 3.75464ZM6.16315 2.83598C5.95454 2.93104 5.76218 3.05832 5.59312 3.21316C5.43026 3.35603 5.24454 3.54034 5.03167 3.75464L6.04172 4.76474C6.26887 4.539 6.41459 4.39328 6.53317 4.28898C6.64746 4.18897 6.70175 4.1604 6.73175 4.14611L6.16315 2.83598ZM7.66751 2.76026C7.17341 2.60262 6.63892 2.62953 6.16315 2.83598L6.73175 4.14611C6.88986 4.07749 7.06745 4.06978 7.23177 4.12182L7.66751 2.76026ZM8.88471 3.5632C8.65041 3.37175 8.44897 3.20602 8.27182 3.08029C8.08848 2.94247 7.88454 2.83446 7.66751 2.76026L7.23177 4.12182C7.30798 4.15138 7.37927 4.19233 7.44321 4.24326C7.57179 4.33613 7.7318 4.46614 7.98038 4.66902L8.88471 3.5632ZM10.2962 4.58187C10.2705 4.57758 10.1719 4.55329 9.91619 4.37613C9.5631 4.11662 9.21907 3.84643 8.88471 3.5632L7.98038 4.66902C8.42612 5.03477 8.7947 5.33622 9.10043 5.5491C9.40045 5.75769 9.73189 5.94628 10.1062 5.99771L10.2962 4.58187ZM10.9591 4.30612C10.8828 4.40651 10.7812 4.4849 10.6648 4.53333C10.5484 4.58176 10.4212 4.59851 10.2962 4.58187L10.1062 5.99771C10.481 6.04838 10.8626 5.99751 11.2121 5.85297C11.5617 5.70843 11.8667 5.47395 12.0963 5.17335L10.9591 4.30612ZM11.2377 2.58882C11.1777 3.18602 11.1377 3.5932 11.0834 3.8918C11.0277 4.19754 10.9762 4.28469 10.9591 4.30612L12.0963 5.17335C12.3249 4.87332 12.4249 4.50614 12.4892 4.14468C12.5549 3.7775 12.6035 3.3046 12.6606 2.73026L11.2377 2.58882ZM11.532 1.16011C11.422 1.37442 11.3663 1.59301 11.3291 1.81446C11.2934 2.02876 11.2677 2.28736 11.2377 2.58882L12.6592 2.73169C12.679 2.50377 12.7057 2.2765 12.7392 2.0502C12.7482 1.96937 12.7694 1.89037 12.802 1.81589L11.532 1.16011ZM12.6492 0.150014C12.1666 0.340796 11.7696 0.698785 11.532 1.16011L12.802 1.81589C12.881 1.66228 13.013 1.5425 13.1735 1.47871L12.6492 0.150014ZM14.0978 0C13.7964 0 13.5349 -1.33059e-08 13.3178 0.0142871C13.0891 0.0235334 12.8634 0.0693563 12.6492 0.150014L13.1735 1.47871C13.2511 1.45383 13.332 1.44083 13.4135 1.44014C13.5706 1.42871 13.7778 1.42871 14.0992 1.42871L14.0978 0ZM15.9036 0H14.0978V1.42871H15.9036V0ZM17.3537 0.150014C17.1384 0.0696451 16.9118 0.0238367 16.6822 0.0142871C16.4665 -1.33059e-08 16.2051 0 15.9036 0V1.42871C16.2236 1.42871 16.4294 1.42871 16.5879 1.44014C16.6694 1.44129 16.7502 1.45428 16.8279 1.47871L17.3537 0.150014ZM18.4695 1.16011C18.2315 0.699322 17.8346 0.340443 17.3523 0.150014L16.8279 1.47871C16.9884 1.5425 17.1204 1.66228 17.1994 1.81589L18.4695 1.16011ZM20.001 15C20.001 16.3262 19.4741 17.5981 18.5364 18.5359C17.5987 19.4736 16.3269 20.0005 15.0007 20.0005V21.4292C16.7058 21.4292 18.341 20.7518 19.5466 19.5461C20.7523 18.3404 21.4296 16.7051 21.4296 15H20.001ZM15.0007 9.99952C16.3269 9.99952 17.5987 10.5264 18.5364 11.4641C19.4741 12.4019 20.001 13.6738 20.001 15H21.4296C21.4296 13.2949 20.7523 11.6596 19.5466 10.4539C18.341 9.24818 16.7058 8.57082 15.0007 8.57082V9.99952ZM10.0005 15C10.0005 13.6738 10.5273 12.4019 11.465 11.4641C12.4027 10.5264 13.6746 9.99952 15.0007 9.99952V8.57082C13.2957 8.57082 11.6605 9.24818 10.4548 10.4539C9.24916 11.6596 8.57184 13.2949 8.57184 15H10.0005ZM15.0007 20.0005C13.6746 20.0005 12.4027 19.4736 11.465 18.5359C10.5273 17.5981 10.0005 16.3262 10.0005 15H8.57184C8.57184 16.7051 9.24916 18.3404 10.4548 19.5461C11.6605 20.7518 13.2957 21.4292 15.0007 21.4292V20.0005Z" fill="#FAF1F1"/>
</svg>
