<svg width="28" height="28" viewBox="0 0 28 28" fill="none" xmlns="http://www.w3.org/2000/svg">
<path d="M23.6246 15.75C23.8616 15.75 24.0667 15.8366 24.2399 16.0098C24.413 16.1829 24.4996 16.388 24.4996 16.625C24.4996 16.862 24.413 17.0671 24.2399 17.2402C24.0667 17.4134 23.8616 17.5 23.6246 17.5C23.3877 17.5 23.1826 17.4134 23.0094 17.2402C22.8362 17.0671 22.7497 16.862 22.7497 16.625C22.7497 16.388 22.8362 16.1829 23.0094 16.0098C23.1826 15.8366 23.3877 15.75 23.6246 15.75ZM15.3806 15.4902C14.6606 14.998 13.8859 14.6289 13.0564 14.3828C12.227 14.1367 11.3748 14.0091 10.4998 14C9.69777 14 8.92304 14.1048 8.17566 14.3145C7.42827 14.5241 6.73102 14.8158 6.08389 15.1895C5.43677 15.5632 4.84888 16.0189 4.32025 16.5566C3.79161 17.0944 3.33589 17.6868 2.95308 18.334C2.57027 18.9811 2.27405 19.6784 2.06442 20.4258C1.85479 21.1732 1.74997 21.9479 1.74997 22.75H0C0 21.6836 0.159503 20.64 0.478508 19.6191C0.797514 18.5983 1.25779 17.6549 1.85935 16.7891C2.4609 15.9232 3.17638 15.153 4.0058 14.4785C4.83521 13.804 5.76033 13.2891 6.78115 12.9336C6.27074 12.6055 5.81502 12.2272 5.41398 11.7988C5.01294 11.3704 4.6666 10.901 4.37493 10.3906C4.08327 9.88021 3.86908 9.34245 3.73236 8.77734C3.59565 8.21224 3.51818 7.61979 3.49995 7C3.49995 6.03385 3.68224 5.12695 4.04681 4.2793C4.41139 3.43164 4.90813 2.6888 5.53702 2.05078C6.16592 1.41276 6.90875 0.911458 7.76551 0.546875C8.62226 0.182292 9.53371 0 10.4998 0C11.466 0 12.3729 0.182292 13.2205 0.546875C14.0681 0.911458 14.811 1.4082 15.449 2.03711C16.087 2.66602 16.5883 3.40885 16.9529 4.26562C17.3174 5.1224 17.4997 6.03385 17.4997 7C17.4997 7.61068 17.4268 8.19857 17.281 8.76367C17.1352 9.32878 16.9164 9.87109 16.6247 10.3906C16.3331 10.9102 15.9913 11.3796 15.5994 11.7988C15.2075 12.2181 14.7472 12.5964 14.2185 12.9336C14.9568 13.1979 15.6677 13.5625 16.3513 14.0273L15.3806 15.4902ZM5.24992 7C5.24992 7.72917 5.38664 8.4082 5.66007 9.03711C5.9335 9.66602 6.3072 10.222 6.78115 10.7051C7.2551 11.1882 7.81108 11.5664 8.44909 11.8398C9.0871 12.1133 9.77068 12.25 10.4998 12.25C11.2199 12.25 11.8989 12.1133 12.5369 11.8398C13.1749 11.5664 13.7309 11.1927 14.2049 10.7188C14.6788 10.2448 15.0571 9.6888 15.3396 9.05078C15.6222 8.41276 15.7589 7.72917 15.7498 7C15.7498 6.27995 15.613 5.60091 15.3396 4.96289C15.0662 4.32487 14.6925 3.76888 14.2185 3.29492C13.7446 2.82096 13.184 2.44271 12.5369 2.16016C11.8898 1.8776 11.2108 1.74089 10.4998 1.75C9.77068 1.75 9.09166 1.88672 8.46276 2.16016C7.83386 2.43359 7.27788 2.80729 6.79482 3.28125C6.31175 3.75521 5.9335 4.31576 5.66007 4.96289C5.38664 5.61003 5.24992 6.28906 5.24992 7ZM22.7497 12.25C23.4697 12.25 24.1487 12.3867 24.7867 12.6602C25.4247 12.9336 25.9807 13.3073 26.4547 13.7812C26.9286 14.2552 27.3069 14.8158 27.5894 15.4629C27.872 16.11 28.0087 16.7891 27.9996 17.5C27.9996 18.2292 27.8629 18.9082 27.5894 19.5371C27.316 20.166 26.9423 20.722 26.4683 21.2051C25.9944 21.6882 25.4339 22.0664 24.7867 22.3398C24.1396 22.6133 23.4606 22.75 22.7497 22.75C22.1572 22.75 21.5739 22.6452 20.9997 22.4355V24.5H19.2497V26.25H17.4997V28H12.2498V24.1445L17.6501 18.7305C17.5499 18.3112 17.4997 17.901 17.4997 17.5C17.4997 16.7799 17.6364 16.1009 17.9099 15.4629C18.1833 14.8249 18.557 14.2689 19.031 13.7949C19.5049 13.321 20.0609 12.9427 20.6989 12.6602C21.3369 12.3776 22.0205 12.2409 22.7497 12.25ZM22.7497 21C23.2327 21 23.6839 20.9089 24.1031 20.7266C24.5224 20.5443 24.8961 20.2936 25.2242 19.9746C25.5523 19.6556 25.803 19.2865 25.9762 18.8672C26.1493 18.4479 26.2405 17.9922 26.2496 17.5C26.2496 17.0169 26.1585 16.5658 25.9762 16.1465C25.7939 15.7272 25.5432 15.3535 25.2242 15.0254C24.9052 14.6973 24.5361 14.4466 24.1168 14.2734C23.6976 14.1003 23.2418 14.0091 22.7497 14C22.2666 14 21.8154 14.0911 21.3962 14.2734C20.9769 14.4557 20.6032 14.7064 20.2751 15.0254C19.947 15.3444 19.6963 15.7135 19.5231 16.1328C19.35 16.5521 19.2588 17.0078 19.2497 17.5C19.2497 17.819 19.2907 18.1107 19.3728 18.375C19.4548 18.6393 19.5505 18.9173 19.6599 19.209L13.9998 24.8555V26.25H15.7498V24.5H17.4997V22.75H19.2497V21.5059L20.5212 20.248C20.8857 20.4577 21.2367 20.6354 21.5739 20.7812C21.9111 20.9271 22.303 21 22.7497 21Z" fill="#FAF1F1"/>
</svg>
