<svg width="28" height="32" viewBox="0 0 28 32" fill="none" xmlns="http://www.w3.org/2000/svg">
<path d="M16.8 32L16.6917 27.7939H14C10.1086 27.7939 6.80276 26.4431 4.0824 23.7415C1.36204 21.04 0.0012453 17.7584 8.52749e-07 13.8969C-0.00124359 10.0354 1.35956 6.75391 4.0824 4.05234C6.80525 1.35078 10.1111 0 14 0C15.9451 0 17.7669 0.361938 19.4656 1.08581C21.163 1.80845 22.6458 2.79853 23.9139 4.05605C25.182 5.31357 26.1794 6.78541 26.9061 8.47157C27.6329 10.1577 27.9975 11.9662 28 13.8969C28 15.7857 27.7206 17.5997 27.1619 19.339C26.6019 21.077 25.8291 22.7206 24.8435 24.2696C23.8579 25.8186 22.6756 27.2454 21.2968 28.5499C19.918 29.8543 18.419 31.0037 16.8 31.9981M18.6667 28.4424C20.8756 26.5895 22.6725 24.4203 24.0576 21.9349C25.4427 19.4495 26.1346 16.7702 26.1333 13.8969C26.1333 10.5308 24.9586 7.68222 22.6091 5.35124C20.2596 3.02027 17.3899 1.85416 14 1.85292C10.6101 1.85169 7.74045 3.0178 5.39093 5.35124C3.04142 7.68469 1.86667 10.5333 1.86667 13.8969C1.86667 17.2606 3.04142 20.1098 5.39093 22.4445C7.74045 24.7792 10.6101 25.9446 14 25.9409H18.6667V28.4424ZM14.0616 23.2931C14.4474 23.2931 14.7728 23.1616 15.0379 22.8984C15.3029 22.6353 15.4355 22.3123 15.4355 21.9294C15.4355 21.5464 15.3029 21.2234 15.0379 20.9603C14.7728 20.6972 14.4474 20.565 14.0616 20.5638C13.6758 20.5625 13.3504 20.6947 13.0853 20.9603C12.8203 21.2259 12.6871 21.5489 12.6859 21.9294C12.6846 22.3098 12.8178 22.6328 13.0853 22.8984C13.3529 23.164 13.6783 23.2956 14.0616 23.2931ZM13.2459 17.8733H14.8979C14.9452 17.1136 15.092 16.5126 15.3384 16.0704C15.5848 15.6282 16.1697 14.9488 17.0931 14.0322C17.6294 13.501 18.0544 12.9581 18.368 12.4035C18.6816 11.8501 18.8384 11.2145 18.8384 10.4968C18.8384 9.16024 18.3736 8.11025 17.444 7.34684C16.5144 6.5822 15.39 6.19988 14.0709 6.19988C12.9186 6.19988 11.9417 6.51303 11.1403 7.13932C10.3376 7.76561 9.7496 8.51233 9.37627 9.3795L10.9125 9.97058C11.1639 9.42212 11.531 8.92245 12.0139 8.47157C12.4967 8.02069 13.1824 7.79587 14.0709 7.7971C15.1275 7.7971 15.9071 8.08184 16.4099 8.6513C16.9139 9.222 17.1659 9.84459 17.1659 10.5191C17.1659 11.1392 17.0041 11.6635 16.6805 12.0922C16.357 12.5208 15.942 12.9871 15.4355 13.4911C14.5395 14.2743 13.9502 14.9784 13.6677 15.6035C13.3852 16.2285 13.2446 16.9851 13.2459 17.8733Z" fill="#FAF1F1"/>
</svg>
