<svg width="33" height="33" viewBox="0 0 33 33" fill="none" xmlns="http://www.w3.org/2000/svg">
<path d="M16.5335 32C25.092 32 32 25.0585 32 16.4665C32 7.90797 25.092 1 16.5335 1M16.5335 32C7.94149 32 1 25.0585 1 16.4665C1 7.90797 7.94149 1 16.5335 1M16.5335 32V1M29.949 8.75H3.06108M30.0351 24.0615H2.97478M1.08378 16.5H32" stroke="#FAF1F1" stroke-width="1.04167" stroke-linecap="round" stroke-linejoin="round"/>
<path d="M16.5169 32C20.7966 32 24.2501 25.0585 24.2501 16.4665C24.2501 7.90797 20.7966 1 16.5169 1C12.2204 1 8.75012 7.90797 8.75012 16.4665C8.75012 25.0585 12.2204 32 16.5169 32Z" stroke="#FAF1F1" stroke-width="1.04167" stroke-linecap="round" stroke-linejoin="round"/>
</svg>
