<svg width="28" height="29" viewBox="0 0 28 29" fill="none" xmlns="http://www.w3.org/2000/svg">
<path d="M24.9635 0V10.5188H26.1022V0H24.9635ZM23.8249 0.828116L17.9164 3.06001L23.8249 5.29127V0.828116ZM7.68732 4.52627C7.37102 4.52627 7.04207 4.6729 6.71944 4.97252C6.32723 5.34227 5.99196 5.93515 5.84646 6.64915C5.70096 7.36953 5.7832 8.05166 6.00461 8.54254C6.22602 9.03979 6.54864 9.32667 6.9282 9.40317C7.30776 9.48604 7.71262 9.34579 8.11116 8.98241C8.49704 8.61266 8.83864 8.01978 8.98414 7.29941C9.12331 6.57903 9.04107 5.8969 8.82599 5.40602C8.60458 4.90877 8.28196 4.62827 7.9024 4.54539C7.83281 4.53264 7.7569 4.52627 7.68732 4.52627ZM5.25814 9.53067C5.04306 9.60717 4.82165 9.69004 4.58127 9.79204C3.00926 10.7929 1.91171 11.7811 0.795807 13.3429C0.0879309 14.3311 0.0531381 16.0204 0 17.2636L1.3158 17.8501C1.37084 16.0778 1.33857 15.3447 2.15526 14.3247C2.7771 13.5469 3.37807 12.7309 4.53066 12.4823C4.63187 14.3247 4.36618 17.1807 3.64502 20.1068C4.94185 20.2853 6.02359 20.0622 7.25082 19.7052C10.4581 18.0923 11.9384 19.463 14.1651 22.6186L15.4619 20.5722C13.9057 18.7298 12.3938 15.7846 8.0479 16.9193C8.3642 15.1789 8.40215 14.0251 8.59193 12.2911C8.62989 11.526 8.64254 10.7674 8.66152 10.0152C8.0985 10.4487 7.40265 10.6782 6.70047 10.5315C6.0995 10.404 5.60607 10.0279 5.25814 9.53067ZM14.3802 9.99604C13.2289 11.1308 12.9758 11.9723 11.2046 12.4441L9.78121 10.914C9.75591 11.7301 9.7306 12.5652 9.66102 13.4131C10.262 13.9677 10.8756 14.4139 11.097 14.3438C13.077 13.7446 13.6464 13.0497 14.9812 11.6727L14.3802 9.99604ZM23.0657 11.6663V17.7863H16.9928V23.9064H10.9199V28.8852C17.3914 28.898 21.5349 28.9554 28 29V11.6663H23.0657ZM6.09317 21.1587C5.23284 21.3181 4.33455 21.3691 3.34517 21.2161C2.65627 23.6067 1.65234 25.9527 0.276445 27.7505L2.72017 28.7259C4.42944 26.3097 5.04939 24.2251 6.09317 21.1587Z" fill="#FAF1F1"/>
</svg>
