<svg width="85" height="106" viewBox="0 0 85 106" fill="none" xmlns="http://www.w3.org/2000/svg">
<circle cx="42.5" cy="42.5" r="40.5" stroke="#FAF1F1" stroke-width="4"/>
<path d="M52.7502 30.8053C52.256 30.8053 51.8283 30.6232 51.4671 30.2588C51.1059 29.8945 50.9253 29.4631 50.9253 28.9646C50.9253 27.9867 51.1059 27.0472 51.4671 26.146C51.8283 25.2448 52.3605 24.4491 53.0639 23.7588L55.3166 21.458C56.039 20.7294 56.4002 19.8569 56.4002 18.8407C56.4002 18.3422 56.5808 17.9108 56.942 17.5465C57.3032 17.1822 57.7309 17 58.2252 17C58.7194 17 59.1472 17.1822 59.5084 17.5465C59.8695 17.9108 60.0501 18.3422 60.0501 18.8407C60.0501 19.8186 59.8695 20.7581 59.5084 21.6593C59.1472 22.5605 58.6149 23.3562 57.9115 24.0465L55.6588 26.3473C54.9364 27.076 54.5752 27.9484 54.5752 28.9646C54.5752 29.4631 54.3946 29.8945 54.0334 30.2588C53.6722 30.6232 53.2445 30.8053 52.7502 30.8053ZM41.8004 30.8053C41.3061 30.8053 40.8784 30.6232 40.5172 30.2588C40.156 29.8945 39.9754 29.4631 39.9754 28.9646C39.9754 27.9867 40.156 27.0472 40.5172 26.146C40.8784 25.2448 41.4107 24.4491 42.1141 23.7588L44.3668 21.458C45.0892 20.7294 45.4503 19.8569 45.4503 18.8407C45.4503 18.3422 45.6309 17.9108 45.9921 17.5465C46.3533 17.1822 46.7811 17 47.2753 17C47.7696 17 48.1973 17.1822 48.5585 17.5465C48.9197 17.9108 49.1003 18.3422 49.1003 18.8407C49.1003 19.8186 48.9197 20.7581 48.5585 21.6593C48.1973 22.5605 47.665 23.3562 46.9617 24.0465L44.7089 26.3473C43.9866 27.076 43.6254 27.9484 43.6254 28.9646C43.6254 29.4631 43.4448 29.8945 43.0836 30.2588C42.7224 30.6232 42.2947 30.8053 41.8004 30.8053ZM65.5251 35.8673C66.2855 35.8673 66.9984 36.0111 67.6637 36.2987C68.3291 36.5863 68.9089 36.9794 69.4031 37.4779C69.8974 37.9764 70.2871 38.5612 70.5723 39.2323C70.8574 39.9034 71 40.6224 71 41.3894V52.4336C71 53.2006 70.8574 53.9196 70.5723 54.5907C70.2871 55.2618 69.8974 55.8466 69.4031 56.3451C68.9089 56.8437 68.3291 57.2367 67.6637 57.5243C66.9984 57.8119 66.2855 57.9558 65.5251 57.9558H63.8997C63.8617 58.09 63.8332 58.2146 63.8142 58.3296C63.7951 58.4447 63.7571 58.5597 63.7001 58.6748V59.7965C63.7001 61.0619 63.4625 62.2507 62.9872 63.3628C62.512 64.4749 61.8561 65.4528 61.0197 66.2965C60.1832 67.1401 59.2137 67.8016 58.1111 68.281C57.0085 68.7603 55.8299 69 54.5752 69H43.6254C42.1426 69 40.7738 68.6645 39.5192 67.9934C38.2645 67.3223 37.2189 66.4307 36.3825 65.3186H22.1249C20.8702 65.3186 19.6916 65.0789 18.589 64.5996C17.4864 64.1202 16.5169 63.4683 15.6804 62.6438C14.844 61.8193 14.1881 60.8414 13.7129 59.7102C13.2376 58.5789 13 57.3805 13 56.115V54.2743H20.2999C20.2999 52.7596 20.5851 51.3311 21.1554 49.9889C21.7257 48.6468 22.5146 47.4771 23.5221 46.4801C24.5297 45.483 25.6893 44.6873 27.001 44.0929C28.3127 43.4985 29.7289 43.2109 31.2498 43.2301C31.8201 43.2301 32.3714 43.278 32.9036 43.3739C33.4359 43.4698 33.9682 43.604 34.5005 43.7765V32.1858H63.7001V35.8673H65.5251ZM31.2498 46.9115C30.2422 46.9115 29.3012 47.1032 28.4267 47.4867C27.5523 47.8702 26.7729 48.3975 26.0885 49.0686C25.4041 49.7397 24.8814 50.5162 24.5202 51.3982C24.159 52.2802 23.9689 53.2389 23.9499 54.2743H34.5005V47.7168C34.0062 47.4676 33.493 47.2758 32.9607 47.1416C32.4284 47.0074 31.8581 46.9307 31.2498 46.9115ZM22.1249 61.6372H34.7001C34.567 61.0811 34.5005 60.4676 34.5005 59.7965V57.9558H16.9636C17.1537 58.4926 17.4199 58.9816 17.762 59.4226C18.1042 59.8636 18.4939 60.2566 18.9312 60.6018C19.3684 60.9469 19.8627 61.1962 20.414 61.3496C20.9653 61.503 21.5356 61.5988 22.1249 61.6372ZM35.3274 63.5642V63.5929L35.3559 63.6504V63.6217L35.3274 63.5642ZM60.0501 59.7965V35.8673H38.1504V59.7965C38.1504 60.5634 38.293 61.2824 38.5782 61.9535C38.8633 62.6246 39.253 63.2094 39.7473 63.708C40.2416 64.2065 40.8214 64.5996 41.4867 64.8872C42.1521 65.1748 42.865 65.3186 43.6254 65.3186H54.5752C55.3356 65.3186 56.0485 65.1748 56.7139 64.8872C57.3792 64.5996 57.959 64.2065 58.4533 63.708C58.9476 63.2094 59.3373 62.6246 59.6224 61.9535C59.9076 61.2824 60.0501 60.5634 60.0501 59.7965ZM67.35 52.4336V41.3894C67.35 40.8909 67.1695 40.4594 66.8083 40.0951C66.4471 39.7308 66.0193 39.5487 65.5251 39.5487H63.7001V54.2743H65.5251C66.0193 54.2743 66.4471 54.0922 66.8083 53.7279C67.1695 53.3636 67.35 52.9322 67.35 52.4336Z" fill="#FAF1F1"/>
<path d="M16.0897 103V94.2727H19.2857C19.905 94.2727 20.4178 94.375 20.824 94.5795C21.2303 94.7812 21.5343 95.0554 21.736 95.402C21.9377 95.7457 22.0385 96.1335 22.0385 96.5653C22.0385 96.929 21.9718 97.2358 21.8382 97.4858C21.7047 97.733 21.5257 97.9318 21.3013 98.0824C21.0797 98.2301 20.8354 98.3381 20.5684 98.4062V98.4915C20.8581 98.5057 21.1408 98.5994 21.4164 98.7727C21.6948 98.9432 21.9249 99.1861 22.1067 99.5014C22.2885 99.8168 22.3794 100.2 22.3794 100.652C22.3794 101.098 22.2743 101.499 22.0641 101.854C21.8567 102.206 21.5357 102.486 21.101 102.693C20.6664 102.898 20.111 103 19.4348 103H16.0897ZM17.4064 101.871H19.307C19.9377 101.871 20.3894 101.749 20.6621 101.504C20.9348 101.26 21.0712 100.955 21.0712 100.588C21.0712 100.312 21.0016 100.06 20.8624 99.8295C20.7232 99.5994 20.5243 99.4162 20.2658 99.2798C20.0101 99.1435 19.7061 99.0753 19.3539 99.0753H17.4064V101.871ZM17.4064 98.0483H19.1706C19.4661 98.0483 19.7317 97.9915 19.9675 97.8778C20.2061 97.7642 20.3951 97.6051 20.5343 97.4006C20.6763 97.1932 20.7473 96.9489 20.7473 96.6676C20.7473 96.3068 20.6209 96.0043 20.3681 95.7599C20.1152 95.5156 19.7275 95.3935 19.2047 95.3935H17.4064V98.0483ZM23.839 103V96.4545H25.0705V97.4943H25.1387C25.258 97.142 25.4682 96.8651 25.7694 96.6634C26.0733 96.4588 26.4171 96.3565 26.8006 96.3565C26.8801 96.3565 26.9739 96.3594 27.0819 96.3651C27.1926 96.3707 27.2793 96.3778 27.3418 96.3864V97.6051C27.2907 97.5909 27.1998 97.5753 27.0691 97.5582C26.9384 97.5384 26.8077 97.5284 26.677 97.5284C26.3759 97.5284 26.1074 97.5923 25.8716 97.7202C25.6387 97.8452 25.454 98.0199 25.3176 98.2443C25.1813 98.4659 25.1131 98.7187 25.1131 99.0028V103H23.839ZM31.0311 103.132C30.3862 103.132 29.8308 102.994 29.3649 102.719C28.9018 102.44 28.5439 102.05 28.291 101.547C28.041 101.041 27.916 100.449 27.916 99.7699C27.916 99.0994 28.041 98.5085 28.291 97.9972C28.5439 97.4858 28.8961 97.0866 29.3478 96.7997C29.8024 96.5128 30.3336 96.3693 30.9416 96.3693C31.3109 96.3693 31.6689 96.4304 32.0154 96.5526C32.362 96.6747 32.6731 96.8665 32.9487 97.1278C33.2243 97.3892 33.4416 97.7287 33.6007 98.1463C33.7598 98.5611 33.8393 99.0653 33.8393 99.6591V100.111H28.6362V99.1562H32.5907C32.5907 98.821 32.5225 98.5241 32.3862 98.2656C32.2498 98.0043 32.0581 97.7983 31.8109 97.6477C31.5666 97.4972 31.2797 97.4219 30.9501 97.4219C30.5922 97.4219 30.2797 97.5099 30.0126 97.6861C29.7484 97.8594 29.5439 98.0866 29.399 98.3679C29.2569 98.6463 29.1859 98.9489 29.1859 99.2756V100.021C29.1859 100.459 29.2626 100.831 29.416 101.138C29.5723 101.445 29.7896 101.679 30.068 101.841C30.3464 102 30.6717 102.08 31.0439 102.08C31.2853 102.08 31.5055 102.045 31.7044 101.977C31.9032 101.906 32.0751 101.801 32.22 101.662C32.3649 101.523 32.4757 101.351 32.5524 101.146L33.7583 101.364C33.6618 101.719 33.4885 102.03 33.2385 102.297C32.9913 102.561 32.6802 102.767 32.3052 102.915C31.9331 103.06 31.5083 103.132 31.0311 103.132ZM37.1578 103.145C36.7431 103.145 36.3681 103.068 36.0328 102.915C35.6976 102.759 35.432 102.533 35.236 102.237C35.0428 101.942 34.9462 101.58 34.9462 101.151C34.9462 100.781 35.0172 100.477 35.1593 100.239C35.3013 100 35.4931 99.8111 35.7346 99.6719C35.976 99.5327 36.2459 99.4276 36.5442 99.3565C36.8425 99.2855 37.1465 99.2315 37.4561 99.1946C37.8482 99.1491 38.1664 99.1122 38.4107 99.0838C38.655 99.0526 38.8326 99.0028 38.9434 98.9347C39.0542 98.8665 39.1096 98.7557 39.1096 98.6023V98.5724C39.1096 98.2003 39.0044 97.9119 38.7942 97.7074C38.5868 97.5028 38.2772 97.4006 37.8652 97.4006C37.4363 97.4006 37.0982 97.4957 36.851 97.6861C36.6067 97.8736 36.4377 98.0824 36.3439 98.3125L35.1465 98.0398C35.2885 97.642 35.4959 97.321 35.7686 97.0767C36.0442 96.8295 36.361 96.6506 36.7189 96.5398C37.0769 96.4261 37.4533 96.3693 37.8482 96.3693C38.1096 96.3693 38.3865 96.4006 38.6792 96.4631C38.9746 96.5227 39.2502 96.6335 39.5059 96.7955C39.7644 96.9574 39.976 97.1889 40.1408 97.4901C40.3056 97.7884 40.388 98.1761 40.388 98.6534V103H39.1436V102.105H39.0925C39.0101 102.27 38.8865 102.432 38.7218 102.591C38.557 102.75 38.3453 102.882 38.0868 102.987C37.8283 103.092 37.5186 103.145 37.1578 103.145ZM37.4348 102.122C37.7871 102.122 38.0882 102.053 38.3382 101.913C38.5911 101.774 38.7828 101.592 38.9135 101.368C39.0471 101.141 39.1138 100.898 39.1138 100.639V99.7955C39.0684 99.8409 38.9803 99.8835 38.8496 99.9233C38.7218 99.9602 38.5755 99.9929 38.4107 100.021C38.2459 100.047 38.0854 100.071 37.9292 100.094C37.7729 100.114 37.6422 100.131 37.5371 100.145C37.29 100.176 37.0641 100.229 36.8596 100.303C36.6578 100.376 36.4959 100.483 36.3738 100.622C36.2544 100.759 36.1948 100.94 36.1948 101.168C36.1948 101.483 36.3113 101.722 36.5442 101.884C36.7772 102.043 37.074 102.122 37.4348 102.122ZM43.2569 100.78L43.2484 99.2244H43.47L46.0779 96.4545H47.6035L44.6291 99.608H44.4288L43.2569 100.78ZM42.085 103V94.2727H43.3592V103H42.085ZM46.2186 103L43.8748 99.8892L44.7527 98.9986L47.7825 103H46.2186ZM51.8798 96.4545V97.4773H48.1809V96.4545H51.8798ZM49.1951 103V95.696C49.1951 95.2869 49.2846 94.9474 49.4636 94.6776C49.6426 94.4048 49.8798 94.2017 50.1752 94.0682C50.4707 93.9318 50.7917 93.8636 51.1383 93.8636C51.394 93.8636 51.6127 93.8849 51.7946 93.9276C51.9764 93.9673 52.1113 94.0043 52.1994 94.0384L51.9011 95.0696C51.8414 95.0526 51.7647 95.0327 51.671 95.0099C51.5772 94.9844 51.4636 94.9716 51.3301 94.9716C51.0204 94.9716 50.7988 95.0483 50.6653 95.2017C50.5346 95.3551 50.4693 95.5767 50.4693 95.8665V103H49.1951ZM54.9 103.145C54.4853 103.145 54.1103 103.068 53.775 102.915C53.4398 102.759 53.1742 102.533 52.9782 102.237C52.785 101.942 52.6884 101.58 52.6884 101.151C52.6884 100.781 52.7594 100.477 52.9015 100.239C53.0435 100 53.2353 99.8111 53.4767 99.6719C53.7182 99.5327 53.9881 99.4276 54.2864 99.3565C54.5847 99.2855 54.8887 99.2315 55.1983 99.1946C55.5904 99.1491 55.9086 99.1122 56.1529 99.0838C56.3972 99.0526 56.5748 99.0028 56.6855 98.9347C56.7963 98.8665 56.8517 98.7557 56.8517 98.6023V98.5724C56.8517 98.2003 56.7466 97.9119 56.5364 97.7074C56.329 97.5028 56.0194 97.4006 55.6074 97.4006C55.1784 97.4006 54.8404 97.4957 54.5932 97.6861C54.3489 97.8736 54.1799 98.0824 54.0861 98.3125L52.8887 98.0398C53.0307 97.642 53.2381 97.321 53.5108 97.0767C53.7864 96.8295 54.1032 96.6506 54.4611 96.5398C54.8191 96.4261 55.1955 96.3693 55.5904 96.3693C55.8517 96.3693 56.1287 96.4006 56.4213 96.4631C56.7168 96.5227 56.9924 96.6335 57.248 96.7955C57.5066 96.9574 57.7182 97.1889 57.883 97.4901C58.0478 97.7884 58.1301 98.1761 58.1301 98.6534V103H56.8858V102.105H56.8347C56.7523 102.27 56.6287 102.432 56.464 102.591C56.2992 102.75 56.0875 102.882 55.829 102.987C55.5705 103.092 55.2608 103.145 54.9 103.145ZM55.177 102.122C55.5293 102.122 55.8304 102.053 56.0804 101.913C56.3333 101.774 56.525 101.592 56.6557 101.368C56.7892 101.141 56.856 100.898 56.856 100.639V99.7955C56.8105 99.8409 56.7225 99.8835 56.5918 99.9233C56.464 99.9602 56.3176 99.9929 56.1529 100.021C55.9881 100.047 55.8276 100.071 55.6713 100.094C55.5151 100.114 55.3844 100.131 55.2793 100.145C55.0321 100.176 54.8063 100.229 54.6017 100.303C54.4 100.376 54.2381 100.483 54.1159 100.622C53.9966 100.759 53.937 100.94 53.937 101.168C53.937 101.483 54.0534 101.722 54.2864 101.884C54.5194 102.043 54.8162 102.122 55.177 102.122ZM64.7321 98.0526L63.5772 98.2571C63.5289 98.1094 63.4522 97.9687 63.3471 97.8352C63.2449 97.7017 63.1056 97.5923 62.9295 97.5071C62.7534 97.4219 62.5332 97.3793 62.269 97.3793C61.9082 97.3793 61.6071 97.4602 61.3656 97.6222C61.1241 97.7812 61.0034 97.9872 61.0034 98.2401C61.0034 98.4588 61.0843 98.6349 61.2463 98.7685C61.4082 98.902 61.6696 99.0114 62.0304 99.0966L63.0701 99.3352C63.6724 99.4744 64.1213 99.6889 64.4167 99.9787C64.7122 100.268 64.8599 100.645 64.8599 101.108C64.8599 101.5 64.7463 101.849 64.519 102.156C64.2946 102.46 63.9806 102.699 63.5772 102.872C63.1767 103.045 62.7122 103.132 62.1838 103.132C61.4508 103.132 60.8528 102.976 60.3897 102.663C59.9267 102.348 59.6426 101.901 59.5375 101.321L60.769 101.134C60.8457 101.455 61.0034 101.697 61.242 101.862C61.4806 102.024 61.7917 102.105 62.1752 102.105C62.5929 102.105 62.9267 102.018 63.1767 101.845C63.4267 101.669 63.5517 101.455 63.5517 101.202C63.5517 100.997 63.475 100.825 63.3216 100.686C63.171 100.547 62.9395 100.442 62.627 100.371L61.519 100.128C60.9082 99.9886 60.4565 99.767 60.1639 99.4631C59.8741 99.1591 59.7292 98.7741 59.7292 98.3082C59.7292 97.9219 59.8372 97.5838 60.0531 97.294C60.269 97.0043 60.5673 96.7784 60.948 96.6165C61.3287 96.4517 61.7647 96.3693 62.2562 96.3693C62.9636 96.3693 63.5204 96.5227 63.9267 96.8295C64.3329 97.1335 64.6014 97.5412 64.7321 98.0526ZM69.3162 96.4545V97.4773H65.7409V96.4545H69.3162ZM66.6998 94.8864H67.9739V101.078C67.9739 101.325 68.0108 101.511 68.0847 101.636C68.1586 101.759 68.2537 101.842 68.3702 101.888C68.4895 101.93 68.6188 101.952 68.758 101.952C68.8603 101.952 68.9498 101.945 69.0265 101.93C69.1032 101.916 69.1628 101.905 69.2054 101.896L69.4355 102.949C69.3617 102.977 69.2566 103.006 69.1202 103.034C68.9838 103.065 68.8134 103.082 68.6088 103.085C68.2736 103.091 67.9611 103.031 67.6713 102.906C67.3816 102.781 67.1472 102.588 66.9682 102.327C66.7892 102.065 66.6998 101.737 66.6998 101.342V94.8864Z" fill="white"/>
</svg>
