<svg width="85" height="106" viewBox="0 0 85 106" fill="none" xmlns="http://www.w3.org/2000/svg">
<circle cx="42.5" cy="42.5" r="40.5" stroke="#FAF1F1" stroke-width="4"/>
<path fill-rule="evenodd" clip-rule="evenodd" d="M49.8198 15.8832C50.3614 16.4257 50.6656 17.1613 50.6656 17.9284C50.6656 18.6955 50.3614 19.4312 49.8198 19.9737L37.4185 32.3927H43.6928L60.1788 15.8832C60.4453 15.6069 60.764 15.3865 61.1165 15.2349C61.4689 15.0833 61.848 15.0034 62.2315 15.0001C62.6151 14.9968 62.9955 15.07 63.3505 15.2154C63.7055 15.3609 64.028 15.5757 64.2993 15.8473C64.5705 16.1189 64.785 16.4419 64.9302 16.7974C65.0755 17.153 65.1486 17.5339 65.1452 17.918C65.1419 18.3021 65.0622 18.6817 64.9108 19.0347C64.7594 19.3876 64.5394 19.7068 64.2635 19.9737L51.8621 32.3927H64.9308C65.6347 32.3929 66.3144 32.6506 66.8421 33.1172C67.3697 33.5838 67.7091 34.2274 67.7964 34.9269C68.498 40.5091 67.3755 46.1688 64.5968 51.0588C61.8181 55.9488 57.5328 59.8061 52.3821 62.0533L53.4683 66.4071C53.5745 66.8334 53.5823 67.2784 53.4911 67.7082C53.3999 68.1381 53.2122 68.5414 52.9421 68.8878C52.672 69.2341 52.3267 69.5142 51.9323 69.7069C51.538 69.8997 51.105 69.9999 50.6662 70H33.3338C32.895 69.9999 32.462 69.8997 32.0677 69.7069C31.6733 69.5142 31.328 69.2341 31.0579 68.8878C30.7878 68.5414 30.6001 68.1381 30.5089 67.7082C30.4177 67.2784 30.4255 66.8334 30.5317 66.4071L31.6179 62.0533C26.4672 59.8061 22.1819 55.9488 19.4032 51.0588C16.6245 46.1688 15.502 40.5091 16.2036 34.9269C16.2909 34.2274 16.6303 33.5838 17.1579 33.1172C17.6856 32.6506 18.3653 32.3929 19.0692 32.3927H29.2491L45.7351 15.8832C46.2768 15.3408 47.0115 15.0362 47.7775 15.0362C48.5435 15.0362 49.2781 15.3408 49.8198 15.8832ZM21.7789 38.1785C21.7791 42.4849 23.1493 46.6792 25.6909 50.1529C28.2325 53.6266 31.8132 56.1991 35.9134 57.497C36.6154 57.7183 37.2066 58.1996 37.5663 58.8426C37.926 59.4856 38.0271 60.2418 37.8489 60.9569L37.0314 64.2143H46.9628L46.1511 60.9569C45.9729 60.2418 46.074 59.4856 46.4337 58.8426C46.7934 58.1996 47.3846 57.7183 48.0866 57.497C52.1868 56.1991 55.7675 53.6266 58.3091 50.1529C60.8507 46.6792 62.2209 42.4849 62.2211 38.1785H21.7789Z" fill="#FAF1F1"/>
<path d="M26.9638 103H24.1385V94.2727H27.0533C27.9084 94.2727 28.6428 94.4474 29.2564 94.7969C29.87 95.1435 30.3402 95.642 30.6669 96.2926C30.9964 96.9403 31.1612 97.7173 31.1612 98.6236C31.1612 99.5327 30.995 100.314 30.6626 100.967C30.3331 101.621 29.8558 102.124 29.2308 102.476C28.6058 102.825 27.8501 103 26.9638 103ZM25.4553 101.849H26.8913C27.5561 101.849 28.1087 101.724 28.549 101.474C28.9893 101.222 29.3189 100.857 29.5376 100.379C29.7564 99.8991 29.8658 99.3139 29.8658 98.6236C29.8658 97.9389 29.7564 97.358 29.5376 96.8807C29.3217 96.4034 28.9993 96.0412 28.5703 95.794C28.1413 95.5469 27.6087 95.4233 26.9723 95.4233H25.4553V101.849ZM32.6964 103V96.4545H33.9705V103H32.6964ZM33.3398 95.4446C33.1183 95.4446 32.9279 95.3707 32.7688 95.223C32.6126 95.0724 32.5344 94.8935 32.5344 94.6861C32.5344 94.4759 32.6126 94.2969 32.7688 94.1491C32.9279 93.9986 33.1183 93.9233 33.3398 93.9233C33.5614 93.9233 33.7504 93.9986 33.9066 94.1491C34.0657 94.2969 34.1452 94.4759 34.1452 94.6861C34.1452 94.8935 34.0657 95.0724 33.9066 95.223C33.7504 95.3707 33.5614 95.4446 33.3398 95.4446ZM36.9588 99.1136V103H35.6847V96.4545H36.9077V97.5199H36.9886C37.1392 97.1733 37.375 96.8949 37.696 96.6847C38.0199 96.4744 38.4276 96.3693 38.919 96.3693C39.3651 96.3693 39.7557 96.4631 40.0909 96.6506C40.4261 96.8352 40.6861 97.1108 40.8707 97.4773C41.0554 97.8437 41.1477 98.2969 41.1477 98.8366V103H39.8736V98.9901C39.8736 98.5156 39.75 98.1449 39.5028 97.8778C39.2557 97.608 38.9162 97.473 38.4844 97.473C38.1889 97.473 37.9261 97.5369 37.696 97.6648C37.4688 97.7926 37.2884 97.9801 37.1548 98.2273C37.0241 98.4716 36.9588 98.767 36.9588 99.1136ZM44.1307 99.1136V103H42.8565V96.4545H44.0795V97.5199H44.1605C44.3111 97.1733 44.5469 96.8949 44.8679 96.6847C45.1918 96.4744 45.5994 96.3693 46.0909 96.3693C46.5369 96.3693 46.9276 96.4631 47.2628 96.6506C47.598 96.8352 47.858 97.1108 48.0426 97.4773C48.2273 97.8437 48.3196 98.2969 48.3196 98.8366V103H47.0455V98.9901C47.0455 98.5156 46.9219 98.1449 46.6747 97.8778C46.4276 97.608 46.0881 97.473 45.6562 97.473C45.3608 97.473 45.098 97.5369 44.8679 97.6648C44.6406 97.7926 44.4602 97.9801 44.3267 98.2273C44.196 98.4716 44.1307 98.767 44.1307 99.1136ZM52.8494 103.132C52.2045 103.132 51.6491 102.994 51.1832 102.719C50.7202 102.44 50.3622 102.05 50.1094 101.547C49.8594 101.041 49.7344 100.449 49.7344 99.7699C49.7344 99.0994 49.8594 98.5085 50.1094 97.9972C50.3622 97.4858 50.7145 97.0866 51.1662 96.7997C51.6207 96.5128 52.152 96.3693 52.7599 96.3693C53.1293 96.3693 53.4872 96.4304 53.8338 96.5526C54.1804 96.6747 54.4915 96.8665 54.767 97.1278C55.0426 97.3892 55.2599 97.7287 55.419 98.1463C55.5781 98.5611 55.6577 99.0653 55.6577 99.6591V100.111H50.4545V99.1562H54.4091C54.4091 98.821 54.3409 98.5241 54.2045 98.2656C54.0682 98.0043 53.8764 97.7983 53.6293 97.6477C53.3849 97.4972 53.098 97.4219 52.7685 97.4219C52.4105 97.4219 52.098 97.5099 51.831 97.6861C51.5668 97.8594 51.3622 98.0866 51.2173 98.3679C51.0753 98.6463 51.0043 98.9489 51.0043 99.2756V100.021C51.0043 100.459 51.081 100.831 51.2344 101.138C51.3906 101.445 51.608 101.679 51.8864 101.841C52.1648 102 52.4901 102.08 52.8622 102.08C53.1037 102.08 53.3239 102.045 53.5227 101.977C53.7216 101.906 53.8935 101.801 54.0384 101.662C54.1832 101.523 54.294 101.351 54.3707 101.146L55.5767 101.364C55.4801 101.719 55.3068 102.03 55.0568 102.297C54.8097 102.561 54.4986 102.767 54.1236 102.915C53.7514 103.06 53.3267 103.132 52.8494 103.132ZM57.0714 103V96.4545H58.3029V97.4943H58.3711C58.4904 97.142 58.7006 96.8651 59.0018 96.6634C59.3058 96.4588 59.6495 96.3565 60.033 96.3565C60.1126 96.3565 60.2063 96.3594 60.3143 96.3651C60.4251 96.3707 60.5117 96.3778 60.5742 96.3864V97.6051C60.5231 97.5909 60.4322 97.5753 60.3015 97.5582C60.1708 97.5384 60.0401 97.5284 59.9094 97.5284C59.6083 97.5284 59.3398 97.5923 59.104 97.7202C58.8711 97.8452 58.6864 98.0199 58.5501 98.2443C58.4137 98.4659 58.3455 98.7187 58.3455 99.0028V103H57.0714Z" fill="white"/>
</svg>
