<svg width="85" height="108" viewBox="0 0 85 108" fill="none" xmlns="http://www.w3.org/2000/svg">
<circle cx="42.5" cy="42.5" r="40.5" stroke="#FAF1F1" stroke-width="4"/>
<path d="M19.845 67C18.505 67 17.362 66.528 16.416 65.584C15.472 64.64 15 63.497 15 62.155V53.845H69V62.155C69 63.495 68.528 64.638 67.584 65.584C66.64 66.528 65.497 67 64.155 67H19.845ZM18 56.845V62.155C18 62.693 18.173 63.135 18.519 63.481C18.865 63.827 19.307 64 19.845 64H64.155C64.693 64 65.135 63.827 65.481 63.481C65.827 63.135 66 62.693 66 62.155V56.845H18ZM42 44.845C40.24 44.845 38.882 45.345 37.926 46.345C36.97 47.345 35.324 47.845 32.988 47.845C30.652 47.845 29.012 47.345 28.068 46.345C27.124 45.345 25.772 44.845 24.012 44.845C22.252 44.845 20.894 45.345 19.938 46.345C18.982 47.345 17.336 47.845 15 47.845V44.845C16.76 44.845 18.118 44.345 19.074 43.345C20.028 42.345 21.674 41.845 24.012 41.845C26.35 41.845 27.99 42.345 28.932 43.345C29.874 44.345 31.226 44.845 32.988 44.845C34.75 44.845 36.108 44.345 37.062 43.345C38.016 42.345 39.662 41.845 42 41.845C44.338 41.845 45.984 42.345 46.938 43.345C47.892 44.345 49.25 44.845 51.012 44.845C52.774 44.845 54.107 44.345 55.011 43.345C55.915 42.345 57.535 41.845 59.871 41.845C62.207 41.845 63.885 42.345 64.905 43.345C65.925 44.345 67.29 44.845 69 44.845V47.845C66.66 47.845 65.045 47.345 64.155 46.345C63.265 45.345 61.938 44.845 60.174 44.845C58.41 44.845 57.027 45.345 56.025 46.345C55.023 47.345 53.352 47.845 51.012 47.845C48.672 47.845 47.026 47.345 46.074 46.345C45.122 45.345 43.764 44.845 42 44.845ZM15 35.845V34C15 29.288 17.088 25.61 21.264 22.966C25.44 20.322 32.352 19 42 19C51.648 19 58.561 20.322 62.739 22.966C66.917 25.61 69.004 29.288 69 34V35.845H15ZM42 22C34.184 22 28.314 22.958 24.39 24.874C20.464 26.788 18.369 29.445 18.105 32.845H65.895C65.631 29.445 63.536 26.788 59.61 24.874C55.686 22.958 49.816 22 42 22Z" fill="#FAF1F1"/>
<path d="M25.4041 105V96.2727H26.7209V103.866H30.6754V105H25.4041ZM36.2216 102.286V98.4545H37.5V105H36.2472V103.866H36.179C36.0284 104.216 35.7869 104.507 35.4545 104.74C35.125 104.97 34.7145 105.085 34.223 105.085C33.8026 105.085 33.4304 104.993 33.1065 104.808C32.7855 104.621 32.5327 104.344 32.348 103.977C32.1662 103.611 32.0753 103.158 32.0753 102.618V98.4545H33.3494V102.464C33.3494 102.911 33.473 103.266 33.7202 103.53C33.9673 103.794 34.2884 103.926 34.6832 103.926C34.9219 103.926 35.1591 103.866 35.3949 103.747C35.6335 103.628 35.831 103.447 35.9872 103.206C36.1463 102.964 36.2244 102.658 36.2216 102.286ZM40.4862 101.114V105H39.212V98.4545H40.435V99.5199H40.516C40.6665 99.1733 40.9023 98.8949 41.2234 98.6847C41.5472 98.4744 41.9549 98.3693 42.4464 98.3693C42.8924 98.3693 43.283 98.4631 43.6183 98.6506C43.9535 98.8352 44.2134 99.1108 44.3981 99.4773C44.5827 99.8437 44.6751 100.297 44.6751 100.837V105H43.4009V100.99C43.4009 100.516 43.2773 100.145 43.0302 99.8778C42.783 99.608 42.4435 99.473 42.0117 99.473C41.7163 99.473 41.4535 99.5369 41.2234 99.6648C40.9961 99.7926 40.8157 99.9801 40.6822 100.227C40.5515 100.472 40.4862 100.767 40.4862 101.114ZM49.141 105.132C48.5075 105.132 47.962 104.989 47.5046 104.702C47.0501 104.412 46.7006 104.013 46.4563 103.504C46.212 102.996 46.0898 102.413 46.0898 101.757C46.0898 101.092 46.2148 100.506 46.4648 99.9972C46.7148 99.4858 47.0671 99.0866 47.5217 98.7997C47.9762 98.5128 48.5117 98.3693 49.1282 98.3693C49.6254 98.3693 50.0685 98.4616 50.4577 98.6463C50.8469 98.8281 51.1609 99.0838 51.3995 99.4134C51.641 99.7429 51.7844 100.128 51.8299 100.568H50.5898C50.5217 100.261 50.3654 99.9972 50.1211 99.7756C49.8796 99.554 49.5558 99.4432 49.1495 99.4432C48.7944 99.4432 48.4833 99.5369 48.2163 99.7244C47.9521 99.9091 47.7461 100.173 47.5984 100.517C47.4506 100.858 47.3768 101.261 47.3768 101.727C47.3768 102.205 47.4492 102.616 47.5941 102.963C47.739 103.31 47.9435 103.578 48.2077 103.768C48.4748 103.959 48.7887 104.054 49.1495 104.054C49.391 104.054 49.6097 104.01 49.8058 103.922C50.0046 103.831 50.1708 103.702 50.3043 103.534C50.4407 103.366 50.5359 103.165 50.5898 102.929H51.8299C51.7844 103.352 51.6467 103.73 51.4165 104.062C51.1864 104.395 50.8782 104.656 50.4918 104.847C50.1083 105.037 49.658 105.132 49.141 105.132ZM54.4666 101.114V105H53.1925V96.2727H54.4496V99.5199H54.5305C54.6839 99.1676 54.9183 98.8878 55.2337 98.6804C55.549 98.473 55.9609 98.3693 56.4695 98.3693C56.9183 98.3693 57.3104 98.4616 57.6456 98.6463C57.9837 98.831 58.245 99.1065 58.4297 99.473C58.6172 99.8366 58.7109 100.291 58.7109 100.837V105H57.4368V100.99C57.4368 100.51 57.3132 100.138 57.0661 99.8736C56.8189 99.6065 56.4751 99.473 56.0348 99.473C55.7337 99.473 55.4638 99.5369 55.2251 99.6648C54.9893 99.7926 54.8033 99.9801 54.6669 100.227C54.5334 100.472 54.4666 100.767 54.4666 101.114Z" fill="white"/>
</svg>
