<svg width="85" height="107" viewBox="0 0 85 107" fill="none" xmlns="http://www.w3.org/2000/svg">
<circle cx="42.5" cy="42.5" r="40.5" stroke="#FAF1F1" stroke-width="4"/>
<path d="M42.5005 50.7332C47.0473 50.7332 50.7332 47.0473 50.7332 42.5005C50.7332 37.9537 47.0473 34.2678 42.5005 34.2678C37.9537 34.2678 34.2678 37.9537 34.2678 42.5005C34.2678 47.0473 37.9537 50.7332 42.5005 50.7332Z" fill="#FAF1F1" stroke="#FAF1F1" stroke-width="3.125"/>
<path d="M49.3611 28.7793L53.4774 23.2909Z" fill="#FAF1F1"/>
<path d="M49.3611 28.7793L53.4774 23.2909" stroke="#FAF1F1" stroke-width="3.125" stroke-linecap="round"/>
<g opacity="0.5">
<path d="M61.7102 28.7793L64.4544 26.0351Z" fill="#FAF1F1"/>
<path d="M61.7102 28.7793L64.4544 26.0351" stroke="#FAF1F1" stroke-width="3.125" stroke-linecap="round"/>
</g>
<path d="M42.5003 23.2909L39.7561 20.5466Z" fill="#FAF1F1"/>
<path d="M42.5003 23.2909L39.7561 20.5466" stroke="#FAF1F1" stroke-width="3.125" stroke-linecap="round"/>
<g opacity="0.5">
<path d="M38.3842 28.7793L34.6356 29.7837ZM28.7794 23.2909L26.0352 20.5466Z" fill="#FAF1F1"/>
<path d="M38.3842 28.7793L34.6356 29.7837M28.7794 23.2909L26.0352 20.5466" stroke="#FAF1F1" stroke-width="3.125" stroke-linecap="round"/>
</g>
<path d="M28.2086 34.663L26.6033 31.1284Z" fill="#FAF1F1"/>
<path d="M28.2086 34.663L26.6033 31.1284" stroke="#FAF1F1" stroke-width="3.125" stroke-linecap="round"/>
<path d="M43.8726 69.9428L43.9659 72.001C44.339 71.9844 44.7006 71.8665 45.0118 71.6601C45.3231 71.4536 45.5723 71.1664 45.7328 70.8291C45.8932 70.4918 45.9589 70.1173 45.9227 69.7455C45.8865 69.3738 45.7499 69.0189 45.5274 68.7189L43.8726 69.9428ZM68.9192 49.9566L67.5828 51.5208C67.8454 51.7445 68.1601 51.8985 68.4978 51.9688C68.8355 52.0391 69.1855 52.0234 69.5155 51.9232C69.8456 51.8229 70.1452 51.6413 70.3867 51.395C70.6282 51.1487 70.804 50.8456 70.8978 50.5137L68.9192 49.9566ZM60.5685 55.1871L58.9138 56.411C59.0899 56.6488 59.3152 56.8459 59.5744 56.9887C59.8335 57.1315 60.1205 57.2168 60.4156 57.2386C60.7107 57.2605 61.007 57.2185 61.2844 57.1155C61.5618 57.0124 61.8137 56.8508 62.023 56.6415L60.5685 55.1871ZM60.8457 54.9072L62.3001 56.3616C62.5322 56.13 62.7056 55.8463 62.8058 55.5341C62.9061 55.2219 62.9303 54.8903 62.8764 54.5669L60.8457 54.9072ZM49.6877 62.5087L49.0702 64.4708C49.429 64.5836 49.8118 64.5959 50.1771 64.5064C50.5423 64.4169 50.8761 64.229 51.1421 63.9632L49.6877 62.5087ZM50.1953 62.001L51.6498 63.4555C51.9983 63.107 52.2103 62.645 52.247 62.1535C52.2838 61.662 52.143 61.1736 51.8501 60.7771L50.1953 62.001ZM42.5005 67.8847C35.7682 67.8847 29.3117 65.2103 24.5512 60.4498C19.7907 55.6894 17.1163 49.2328 17.1163 42.5005H13C13 58.793 26.208 72.001 42.5005 72.001V67.8847ZM17.1163 42.5005C17.1163 35.7682 19.7907 29.3117 24.5512 24.5512C29.3117 19.7907 35.7682 17.1164 42.5005 17.1164V13C26.208 13 13 26.208 13 42.5005H17.1163ZM42.5005 17.1164C49.2328 17.1164 55.6894 19.7907 60.4498 24.5512C65.2103 29.3117 67.8847 35.7682 67.8847 42.5005H72.001C72.001 26.208 58.793 13 42.5005 13V17.1164ZM45.5274 68.7189C44.888 67.8545 44.9785 66.0762 46.315 65.0883L43.8671 61.7787C40.8018 64.0455 40.1542 68.3759 42.2179 71.1668L45.5274 68.7189ZM51.3424 60.0883C50.5301 58.9906 50.6948 56.7266 52.8325 55.1459L50.3847 51.8364C47.023 54.3254 45.4643 59.062 48.0329 62.5389L51.3424 60.0883ZM52.8325 55.1459C54.973 53.5625 57.1849 54.0729 57.9944 55.1679L61.304 52.72C58.7354 49.2486 53.7491 49.3501 50.3847 51.8364L52.8325 55.1459ZM64.2486 51.8254C65.6097 50.8183 66.9928 51.0214 67.5828 51.5235L70.2529 48.3896C67.8737 46.3616 64.3199 46.6525 61.8007 48.5159L64.2486 51.8254ZM67.8847 42.5005C67.8872 44.8327 67.5686 47.1542 66.9379 49.3995L70.8978 50.5137C71.6168 47.9615 72.001 45.2749 72.001 42.5005H67.8847ZM43.7793 67.8847C43.4116 67.9039 43.0548 67.8847 42.5005 67.8847V72.001C42.8024 72.001 43.4884 72.0202 43.9659 72.001L43.7793 67.8847ZM57.9944 55.1679L58.9138 56.411L62.2233 53.9632L61.304 52.72L57.9944 55.1679ZM62.8792 54.5669C62.7502 53.815 63.1152 52.6624 64.2486 51.8254L61.8007 48.5159C59.63 50.1212 58.3978 52.731 58.8177 55.2475L62.8792 54.5669ZM62.023 56.6415L62.3029 56.3644L59.394 53.4527L59.1141 53.7299L62.023 56.6415ZM46.315 65.0883C47.2947 64.3611 48.3594 64.2486 49.0702 64.4708L50.3051 60.5466C48.2003 59.8825 45.7826 60.36 43.8671 61.7787L46.315 65.0883ZM48.0329 62.5389L48.5406 63.2222L51.8501 60.7771L51.3424 60.0883L48.0329 62.5389ZM51.1421 63.9632L51.6525 63.4555L48.7409 60.5466L48.2332 61.0543L51.1421 63.9632Z" fill="#FAF1F1"/>
<g opacity="0.5">
<path d="M15.0581 45.2448C15.0581 45.2448 21.0954 50.7332 26.035 50.7332C29.361 50.7332 33.1865 48.2415 35.3298 46.6169M53.4774 52.1053C52.1053 50.7332 49.2814 49.7425 47.9889 48.6037Z" fill="#FAF1F1"/>
<path d="M15.0581 45.2448C15.0581 45.2448 21.0954 50.7332 26.035 50.7332C29.361 50.7332 33.1865 48.2415 35.3298 46.6169M53.4774 52.1053C52.1053 50.7332 49.2814 49.7425 47.9889 48.6037" stroke="#FAF1F1" stroke-width="3.125"/>
</g>
<g opacity="0.5">
<path d="M55.2612 34.2047L55.4423 38.0795Z" fill="#FAF1F1"/>
<path d="M55.2612 34.2047L55.4423 38.0795" stroke="#FAF1F1" stroke-width="3.125" stroke-linecap="round"/>
</g>
<path d="M66.3149 37.2453L61.7101 41.3013ZM25.1157 44.2596L27.4072 41.1284Z" fill="#FAF1F1"/>
<path d="M66.3149 37.2453L61.7101 41.3013M25.1157 44.2596L27.4072 41.1284" stroke="#FAF1F1" stroke-width="3.125" stroke-linecap="round"/>
<g opacity="0.5">
<path d="M19.6768 37.9725L19.46 34.0977Z" fill="#FAF1F1"/>
<path d="M19.6768 37.9725L19.46 34.0977" stroke="#FAF1F1" stroke-width="3.125" stroke-linecap="round"/>
</g>
<path d="M27.8945 97.5653C27.8491 97.1619 27.6616 96.8494 27.332 96.6278C27.0025 96.4034 26.5877 96.2912 26.0877 96.2912C25.7298 96.2912 25.4201 96.348 25.1587 96.4616C24.8974 96.5724 24.6942 96.7259 24.5494 96.9219C24.4073 97.1151 24.3363 97.3352 24.3363 97.5824C24.3363 97.7898 24.3846 97.9687 24.4812 98.1193C24.5806 98.2699 24.7099 98.3963 24.869 98.4986C25.0309 98.598 25.2042 98.6818 25.3888 98.75C25.5735 98.8153 25.7511 98.8693 25.9215 98.9119L26.7738 99.1335C27.0522 99.2017 27.3377 99.294 27.6303 99.4105C27.9229 99.527 28.1942 99.6804 28.4442 99.8707C28.6942 100.061 28.896 100.297 29.0494 100.578C29.2056 100.859 29.2837 101.196 29.2837 101.588C29.2837 102.082 29.1559 102.521 28.9002 102.905C28.6474 103.288 28.2795 103.591 27.7965 103.812C27.3164 104.034 26.7354 104.145 26.0536 104.145C25.4002 104.145 24.8349 104.041 24.3576 103.834C23.8803 103.626 23.5067 103.332 23.2369 102.952C22.967 102.568 22.8178 102.114 22.7894 101.588H24.1104C24.136 101.903 24.2383 102.166 24.4173 102.376C24.5991 102.584 24.8306 102.739 25.1119 102.841C25.396 102.94 25.707 102.99 26.0451 102.99C26.4173 102.99 26.7482 102.932 27.038 102.815C27.3306 102.696 27.5607 102.531 27.7283 102.321C27.896 102.108 27.9798 101.859 27.9798 101.575C27.9798 101.317 27.9059 101.105 27.7582 100.94C27.6133 100.776 27.4158 100.639 27.1658 100.531C26.9187 100.423 26.6388 100.328 26.3263 100.246L25.2951 99.9645C24.5962 99.7741 24.0423 99.4943 23.6332 99.125C23.2269 98.7557 23.0238 98.267 23.0238 97.6591C23.0238 97.1562 23.1602 96.7173 23.4329 96.3423C23.7056 95.9673 24.0749 95.6761 24.5408 95.4688C25.0067 95.2585 25.5323 95.1534 26.1175 95.1534C26.7085 95.1534 27.2298 95.2571 27.6815 95.4645C28.136 95.6719 28.494 95.9574 28.7553 96.321C29.0167 96.6818 29.1531 97.0966 29.1644 97.5653H27.8945ZM32.0291 100.114V104H30.755V97.4545H31.978V98.5199H32.0589C32.2095 98.1733 32.4453 97.8949 32.7663 97.6847C33.0902 97.4744 33.4979 97.3693 33.9893 97.3693C34.4354 97.3693 34.826 97.4631 35.1612 97.6506C35.4964 97.8352 35.7564 98.1108 35.9411 98.4773C36.1257 98.8437 36.218 99.2969 36.218 99.8366V104H34.9439V99.9901C34.9439 99.5156 34.8203 99.1449 34.5732 98.8778C34.326 98.608 33.9865 98.473 33.5547 98.473C33.2592 98.473 32.9964 98.5369 32.7663 98.6648C32.5391 98.7926 32.3587 98.9801 32.2251 99.2273C32.0945 99.4716 32.0291 99.767 32.0291 100.114ZM39.8317 104.145C39.4169 104.145 39.0419 104.068 38.7067 103.915C38.3714 103.759 38.1058 103.533 37.9098 103.237C37.7166 102.942 37.62 102.58 37.62 102.151C37.62 101.781 37.6911 101.477 37.8331 101.239C37.9751 101 38.1669 100.811 38.4084 100.672C38.6499 100.533 38.9197 100.428 39.218 100.357C39.5163 100.286 39.8203 100.232 40.13 100.195C40.522 100.149 40.8402 100.112 41.0845 100.084C41.3288 100.053 41.5064 100.003 41.6172 99.9347C41.728 99.8665 41.7834 99.7557 41.7834 99.6023V99.5724C41.7834 99.2003 41.6783 98.9119 41.468 98.7074C41.2607 98.5028 40.951 98.4006 40.5391 98.4006C40.1101 98.4006 39.772 98.4957 39.5249 98.6861C39.2805 98.8736 39.1115 99.0824 39.0178 99.3125L37.8203 99.0398C37.9624 98.642 38.1697 98.321 38.4425 98.0767C38.718 97.8295 39.0348 97.6506 39.3928 97.5398C39.7507 97.4261 40.1271 97.3693 40.522 97.3693C40.7834 97.3693 41.0604 97.4006 41.353 97.4631C41.6484 97.5227 41.924 97.6335 42.1797 97.7955C42.4382 97.9574 42.6499 98.1889 42.8146 98.4901C42.9794 98.7884 43.0618 99.1761 43.0618 99.6534V104H41.8175V103.105H41.7663C41.6839 103.27 41.5604 103.432 41.3956 103.591C41.2308 103.75 41.0192 103.882 40.7607 103.987C40.5021 104.092 40.1925 104.145 39.8317 104.145ZM40.1087 103.122C40.4609 103.122 40.7621 103.053 41.0121 102.913C41.2649 102.774 41.4567 102.592 41.5874 102.368C41.7209 102.141 41.7876 101.898 41.7876 101.639V100.795C41.7422 100.841 41.6541 100.884 41.5234 100.923C41.3956 100.96 41.2493 100.993 41.0845 101.021C40.9197 101.047 40.7592 101.071 40.603 101.094C40.4467 101.114 40.3161 101.131 40.2109 101.145C39.9638 101.176 39.7379 101.229 39.5334 101.303C39.3317 101.376 39.1697 101.483 39.0476 101.622C38.9283 101.759 38.8686 101.94 38.8686 102.168C38.8686 102.483 38.9851 102.722 39.218 102.884C39.451 103.043 39.7479 103.122 40.1087 103.122ZM47.516 104.132C46.8825 104.132 46.337 103.989 45.8796 103.702C45.4251 103.412 45.0756 103.013 44.8313 102.504C44.587 101.996 44.4648 101.413 44.4648 100.757C44.4648 100.092 44.5898 99.5057 44.8398 98.9972C45.0898 98.4858 45.4421 98.0866 45.8967 97.7997C46.3512 97.5128 46.8867 97.3693 47.5032 97.3693C48.0004 97.3693 48.4435 97.4616 48.8327 97.6463C49.2219 97.8281 49.5359 98.0838 49.7745 98.4134C50.016 98.7429 50.1594 99.1278 50.2049 99.5682H48.9648C48.8967 99.2614 48.7404 98.9972 48.4961 98.7756C48.2546 98.554 47.9308 98.4432 47.5245 98.4432C47.1694 98.4432 46.8583 98.5369 46.5913 98.7244C46.3271 98.9091 46.1211 99.1733 45.9734 99.517C45.8256 99.858 45.7518 100.261 45.7518 100.727C45.7518 101.205 45.8242 101.616 45.9691 101.963C46.114 102.31 46.3185 102.578 46.5827 102.768C46.8498 102.959 47.1637 103.054 47.5245 103.054C47.766 103.054 47.9847 103.01 48.1808 102.922C48.3796 102.831 48.5458 102.702 48.6793 102.534C48.8157 102.366 48.9109 102.165 48.9648 101.929H50.2049C50.1594 102.352 50.0217 102.73 49.7915 103.062C49.5614 103.395 49.2532 103.656 48.8668 103.847C48.4833 104.037 48.033 104.132 47.516 104.132ZM52.7393 101.78L52.7308 100.224H52.9524L55.5604 97.4545H57.0859L54.1115 100.608H53.9112L52.7393 101.78ZM51.5675 104V95.2727H52.8416V104H51.5675ZM55.701 104L53.3572 100.889L54.2351 99.9986L57.2649 104H55.701ZM63.152 99.0526L61.9972 99.2571C61.9489 99.1094 61.8722 98.9687 61.767 98.8352C61.6648 98.7017 61.5256 98.5923 61.3494 98.5071C61.1733 98.4219 60.9531 98.3793 60.6889 98.3793C60.3281 98.3793 60.027 98.4602 59.7855 98.6222C59.544 98.7812 59.4233 98.9872 59.4233 99.2401C59.4233 99.4588 59.5043 99.6349 59.6662 99.7685C59.8281 99.902 60.0895 100.011 60.4503 100.097L61.4901 100.335C62.0923 100.474 62.5412 100.689 62.8366 100.979C63.1321 101.268 63.2798 101.645 63.2798 102.108C63.2798 102.5 63.1662 102.849 62.9389 103.156C62.7145 103.46 62.4006 103.699 61.9972 103.872C61.5966 104.045 61.1321 104.132 60.6037 104.132C59.8707 104.132 59.2727 103.976 58.8097 103.663C58.3466 103.348 58.0625 102.901 57.9574 102.321L59.1889 102.134C59.2656 102.455 59.4233 102.697 59.6619 102.862C59.9006 103.024 60.2116 103.105 60.5952 103.105C61.0128 103.105 61.3466 103.018 61.5966 102.845C61.8466 102.669 61.9716 102.455 61.9716 102.202C61.9716 101.997 61.8949 101.825 61.7415 101.686C61.5909 101.547 61.3594 101.442 61.0469 101.371L59.9389 101.128C59.3281 100.989 58.8764 100.767 58.5838 100.463C58.294 100.159 58.1491 99.7741 58.1491 99.3082C58.1491 98.9219 58.2571 98.5838 58.473 98.294C58.6889 98.0043 58.9872 97.7784 59.3679 97.6165C59.7486 97.4517 60.1847 97.3693 60.6761 97.3693C61.3835 97.3693 61.9403 97.5227 62.3466 97.8295C62.7528 98.1335 63.0213 98.5412 63.152 99.0526Z" fill="white"/>
</svg>
