<svg width="85" height="107" viewBox="0 0 85 107" fill="none" xmlns="http://www.w3.org/2000/svg">
<circle cx="42.5" cy="42.5" r="40.5" stroke="#FAF1F1" stroke-width="4"/>
<path d="M40.25 35.5C37.9583 35.5 35.7083 35.8233 33.5 36.47C31.2917 37.1167 29.25 38.085 27.375 39.375L30 63H55L57.75 38H56C54.4167 38 52.9792 37.8858 51.6875 37.6575C50.3958 37.4292 48.625 36.9808 46.375 36.3125C45.4167 36.0208 44.4167 35.8125 43.375 35.6875C42.3333 35.5625 41.2917 35.5 40.25 35.5ZM26.75 33.9375C28.875 32.8125 31.0733 31.9583 33.345 31.375C35.6167 30.7917 37.9392 30.5 40.3125 30.5C41.5625 30.5 42.8025 30.5833 44.0325 30.75C45.2625 30.9167 46.4808 31.1667 47.6875 31.5C49.7708 32.0833 51.365 32.4792 52.47 32.6875C53.575 32.8958 54.7517 33 56 33H58.3125L59.375 23H25.625L26.75 33.9375ZM29.9375 68C28.6458 68 27.5317 67.5833 26.595 66.75C25.6583 65.9167 25.1267 64.8542 25 63.5625L20 18H65L60 63.5625C59.875 64.8542 59.3433 65.9167 58.405 66.75C57.4667 67.5833 56.3525 68 55.0625 68H29.9375ZM40.25 63H55H30H40.25Z" fill="#FAF1F1"/>
<path d="M27.6871 104L25.2667 95.2727H26.6516L28.3519 102.031H28.4329L30.2013 95.2727H31.5735L33.342 102.036H33.4229L35.119 95.2727H36.5082L34.0835 104H32.7582L30.9215 97.4631H30.8533L29.0167 104H27.6871ZM38.8668 104.145C38.4521 104.145 38.0771 104.068 37.7418 103.915C37.4066 103.759 37.141 103.533 36.945 103.237C36.7518 102.942 36.6552 102.58 36.6552 102.151C36.6552 101.781 36.7262 101.477 36.8683 101.239C37.0103 101 37.2021 100.811 37.4435 100.672C37.685 100.533 37.9549 100.428 38.2532 100.357C38.5515 100.286 38.8555 100.232 39.1651 100.195C39.5572 100.149 39.8754 100.112 40.1197 100.084C40.364 100.053 40.5415 100.003 40.6523 99.9347C40.7631 99.8665 40.8185 99.7557 40.8185 99.6023V99.5724C40.8185 99.2003 40.7134 98.9119 40.5032 98.7074C40.2958 98.5028 39.9862 98.4006 39.5742 98.4006C39.1452 98.4006 38.8072 98.4957 38.56 98.6861C38.3157 98.8736 38.1467 99.0824 38.0529 99.3125L36.8555 99.0398C36.9975 98.642 37.2049 98.321 37.4776 98.0767C37.7532 97.8295 38.07 97.6506 38.4279 97.5398C38.7859 97.4261 39.1623 97.3693 39.5572 97.3693C39.8185 97.3693 40.0955 97.4006 40.3881 97.4631C40.6836 97.5227 40.9592 97.6335 41.2148 97.7955C41.4734 97.9574 41.685 98.1889 41.8498 98.4901C42.0146 98.7884 42.0969 99.1761 42.0969 99.6534V104H40.8526V103.105H40.8015C40.7191 103.27 40.5955 103.432 40.4308 103.591C40.266 103.75 40.0543 103.882 39.7958 103.987C39.5373 104.092 39.2276 104.145 38.8668 104.145ZM39.1438 103.122C39.4961 103.122 39.7972 103.053 40.0472 102.913C40.3001 102.774 40.4918 102.592 40.6225 102.368C40.756 102.141 40.8228 101.898 40.8228 101.639V100.795C40.7773 100.841 40.6893 100.884 40.5586 100.923C40.4308 100.96 40.2844 100.993 40.1197 101.021C39.9549 101.047 39.7944 101.071 39.6381 101.094C39.4819 101.114 39.3512 101.131 39.2461 101.145C38.9989 101.176 38.7731 101.229 38.5685 101.303C38.3668 101.376 38.2049 101.483 38.0827 101.622C37.9634 101.759 37.9038 101.94 37.9038 102.168C37.9038 102.483 38.0202 102.722 38.2532 102.884C38.4862 103.043 38.783 103.122 39.1438 103.122ZM46.8494 97.4545V98.4773H43.2741V97.4545H46.8494ZM44.233 95.8864H45.5071V102.078C45.5071 102.325 45.544 102.511 45.6179 102.636C45.6918 102.759 45.7869 102.842 45.9034 102.888C46.0227 102.93 46.152 102.952 46.2912 102.952C46.3935 102.952 46.483 102.945 46.5597 102.93C46.6364 102.916 46.696 102.905 46.7386 102.896L46.9688 103.949C46.8949 103.977 46.7898 104.006 46.6534 104.034C46.517 104.065 46.3466 104.082 46.142 104.085C45.8068 104.091 45.4943 104.031 45.2045 103.906C44.9148 103.781 44.6804 103.588 44.5014 103.327C44.3224 103.065 44.233 102.737 44.233 102.342V95.8864ZM51.0096 104.132C50.3647 104.132 49.8093 103.994 49.3434 103.719C48.8803 103.44 48.5224 103.05 48.2695 102.547C48.0195 102.041 47.8945 101.449 47.8945 100.77C47.8945 100.099 48.0195 99.5085 48.2695 98.9972C48.5224 98.4858 48.8746 98.0866 49.3263 97.7997C49.7809 97.5128 50.3121 97.3693 50.9201 97.3693C51.2894 97.3693 51.6474 97.4304 51.994 97.5526C52.3406 97.6747 52.6516 97.8665 52.9272 98.1278C53.2028 98.3892 53.4201 98.7287 53.5792 99.1463C53.7383 99.5611 53.8178 100.065 53.8178 100.659V101.111H48.6147V100.156H52.5692C52.5692 99.821 52.5011 99.5241 52.3647 99.2656C52.2283 99.0043 52.0366 98.7983 51.7894 98.6477C51.5451 98.4972 51.2582 98.4219 50.9286 98.4219C50.5707 98.4219 50.2582 98.5099 49.9911 98.6861C49.7269 98.8594 49.5224 99.0866 49.3775 99.3679C49.2354 99.6463 49.1644 99.9489 49.1644 100.276V101.021C49.1644 101.459 49.2411 101.831 49.3945 102.138C49.5508 102.445 49.7681 102.679 50.0465 102.841C50.3249 103 50.6502 103.08 51.0224 103.08C51.2638 103.08 51.484 103.045 51.6829 102.977C51.8817 102.906 52.0536 102.801 52.1985 102.662C52.3434 102.523 52.4542 102.351 52.5309 102.146L53.7369 102.364C53.6403 102.719 53.467 103.03 53.217 103.297C52.9698 103.561 52.6587 103.767 52.2837 103.915C51.9116 104.06 51.4869 104.132 51.0096 104.132ZM55.2315 104V97.4545H56.4631V98.4943H56.5312C56.6506 98.142 56.8608 97.8651 57.1619 97.6634C57.4659 97.4588 57.8097 97.3565 58.1932 97.3565C58.2727 97.3565 58.3665 97.3594 58.4744 97.3651C58.5852 97.3707 58.6719 97.3778 58.7344 97.3864V98.6051C58.6832 98.5909 58.5923 98.5753 58.4616 98.5582C58.331 98.5384 58.2003 98.5284 58.0696 98.5284C57.7685 98.5284 57.5 98.5923 57.2642 98.7202C57.0313 98.8452 56.8466 99.0199 56.7102 99.2443C56.5739 99.4659 56.5057 99.7187 56.5057 100.003V104H55.2315Z" fill="white"/>
</svg>
