<svg width="29" height="25" viewBox="0 0 29 25" fill="none" xmlns="http://www.w3.org/2000/svg">
<path d="M19.1284 19.2308L22.4769 25H20.2459L16.8973 19.2308H12.1143L8.76573 25H6.53467L9.8832 19.2308H3.86667C3.61029 19.2308 3.36442 19.1295 3.18313 18.9491C3.00185 18.7688 2.9 18.5242 2.9 18.2692V1.92308H0.966667C0.710291 1.92308 0.464415 1.82177 0.28313 1.64145C0.101845 1.46113 0 1.21655 0 0.961538C0 0.706523 0.101845 0.461952 0.28313 0.281628C0.464415 0.101305 0.710291 0 0.966667 0H28.0333C28.2897 0 28.5356 0.101305 28.7169 0.281628C28.8982 0.461952 29 0.706523 29 0.961538C29 1.21655 28.8982 1.46113 28.7169 1.64145C28.5356 1.82177 28.2897 1.92308 28.0333 1.92308H26.1V18.2692C26.1 18.5242 25.9982 18.7688 25.8169 18.9491C25.6356 19.1295 25.3897 19.2308 25.1333 19.2308H19.1284ZM24.1667 1.92308H4.83333V17.3077H24.1667V1.92308ZM9.66667 9.61538C9.92304 9.61538 10.1689 9.71669 10.3502 9.89701C10.5315 10.0773 10.6333 10.3219 10.6333 10.5769V12.5C10.6333 12.755 10.5315 12.9996 10.3502 13.1799C10.1689 13.3602 9.92304 13.4615 9.66667 13.4615C9.41029 13.4615 9.16442 13.3602 8.98313 13.1799C8.80184 12.9996 8.7 12.755 8.7 12.5V10.5769C8.7 10.3219 8.80184 10.0773 8.98313 9.89701C9.16442 9.71669 9.41029 9.61538 9.66667 9.61538ZM14.5 7.69231C14.7564 7.69231 15.0023 7.79361 15.1835 7.97394C15.3648 8.15426 15.4667 8.39883 15.4667 8.65385V12.5C15.4667 12.755 15.3648 12.9996 15.1835 13.1799C15.0023 13.3602 14.7564 13.4615 14.5 13.4615C14.2436 13.4615 13.9977 13.3602 13.8165 13.1799C13.6352 12.9996 13.5333 12.755 13.5333 12.5V8.65385C13.5333 8.39883 13.6352 8.15426 13.8165 7.97394C13.9977 7.79361 14.2436 7.69231 14.5 7.69231ZM19.3333 5.76923C19.5897 5.76923 19.8356 5.87054 20.0169 6.05086C20.1982 6.23118 20.3 6.47575 20.3 6.73077V12.5C20.3 12.755 20.1982 12.9996 20.0169 13.1799C19.8356 13.3602 19.5897 13.4615 19.3333 13.4615C19.077 13.4615 18.8311 13.3602 18.6498 13.1799C18.4685 12.9996 18.3667 12.755 18.3667 12.5V6.73077C18.3667 6.47575 18.4685 6.23118 18.6498 6.05086C18.8311 5.87054 19.077 5.76923 19.3333 5.76923Z" fill="#FAF1F1"/>
</svg>
