<svg width="26" height="26" viewBox="0 0 26 26" fill="none" xmlns="http://www.w3.org/2000/svg">
<path d="M23.5625 26H2.4375C1.0888 26 0 24.911 0 23.562V4.06201C0 2.71401 1.0888 1.625 2.4375 1.625H23.5625C24.9112 1.625 26 2.71401 26 4.06201V23.562C26 24.911 24.9112 26 23.5625 26ZM2.4375 3.25C1.9825 3.25 1.625 3.60701 1.625 4.06201V23.562C1.625 24.017 1.9825 24.375 2.4375 24.375H23.5625C24.0175 24.375 24.375 24.017 24.375 23.562V4.06201C24.375 3.60701 24.0175 3.25 23.5625 3.25H2.4375Z" fill="#FAF1F1"/>
<path d="M7.3125 6.5C6.8575 6.5 6.5 6.14199 6.5 5.68799V0.812012C6.5 0.357012 6.8575 0 7.3125 0C7.7675 0 8.125 0.357012 8.125 0.812012V5.68799C8.125 6.14199 7.7675 6.5 7.3125 6.5ZM18.6875 6.5C18.2325 6.5 17.875 6.14199 17.875 5.68799V0.812012C17.875 0.357012 18.2325 0 18.6875 0C19.1425 0 19.5 0.357012 19.5 0.812012V5.68799C19.5 6.14199 19.1425 6.5 18.6875 6.5ZM25.1875 9.75H0.8125C0.3575 9.75 0 9.39199 0 8.93799C0 8.48299 0.3575 8.125 0.8125 8.125H25.1875C25.6425 8.125 26 8.48299 26 8.93799C26 9.39199 25.6425 9.75 25.1875 9.75Z" fill="#FAF1F1"/>
<path d="M6.5 16.25C7.3975 16.25 8.125 15.522 8.125 14.625C8.125 13.728 7.3975 13 6.5 13C5.6025 13 4.875 13.728 4.875 14.625C4.875 15.522 5.6025 16.25 6.5 16.25Z" fill="#FAF1F1"/>
<path d="M13 16.25C13.8975 16.25 14.625 15.522 14.625 14.625C14.625 13.728 13.8975 13 13 13C12.1025 13 11.375 13.728 11.375 14.625C11.375 15.522 12.1025 16.25 13 16.25Z" fill="#FAF1F1"/>
<path d="M19.5 16.25C20.3975 16.25 21.125 15.522 21.125 14.625C21.125 13.728 20.3975 13 19.5 13C18.6025 13 17.875 13.728 17.875 14.625C17.875 15.522 18.6025 16.25 19.5 16.25Z" fill="#FAF1F1"/>
<path d="M6.5 21.125C7.3975 21.125 8.125 20.397 8.125 19.5C8.125 18.603 7.3975 17.875 6.5 17.875C5.6025 17.875 4.875 18.603 4.875 19.5C4.875 20.397 5.6025 21.125 6.5 21.125Z" fill="#FAF1F1"/>
<path d="M13 21.125C13.8975 21.125 14.625 20.397 14.625 19.5C14.625 18.603 13.8975 17.875 13 17.875C12.1025 17.875 11.375 18.603 11.375 19.5C11.375 20.397 12.1025 21.125 13 21.125Z" fill="#FAF1F1"/>
<path d="M19.5 21.125C20.3975 21.125 21.125 20.397 21.125 19.5C21.125 18.603 20.3975 17.875 19.5 17.875C18.6025 17.875 17.875 18.603 17.875 19.5C17.875 20.397 18.6025 21.125 19.5 21.125Z" fill="#FAF1F1"/>
</svg>
