<svg width="31" height="31" viewBox="0 0 31 31" fill="none" xmlns="http://www.w3.org/2000/svg">
<path d="M26.46 4.53996C25.0222 3.09896 23.3139 1.95601 21.433 1.17601C19.5521 0.397011 17.5358 -0.0020145 15.5 -1.45035e-05C13.4637 -0.0050145 11.4466 0.392983 9.5653 1.17198C7.684 1.95198 5.976 3.09596 4.5399 4.53996C1.612 7.46796 0 11.362 0 15.5C0 19.639 1.612 23.532 4.5399 26.46C7.4679 29.388 11.3615 31 15.5 31C19.6385 31 23.5321 29.388 26.46 26.46C27.9037 25.024 29.0483 23.316 29.8276 21.435C30.6069 19.553 31.0054 17.536 30.9999 15.5C31.0025 13.464 30.6027 11.448 29.8236 9.567C29.0445 7.686 27.9014 5.97796 26.46 4.53996ZM24.2683 24.268C21.9263 26.61 18.8123 27.9 15.5 27.9C12.1876 27.9 9.0737 26.61 6.7316 24.268C4.3896 21.926 3.1 18.812 3.1 15.5C3.1 12.188 4.3896 9.07398 6.7316 6.73198C7.8805 5.57698 9.247 4.66101 10.7521 4.03801C12.2571 3.41401 13.8709 3.09596 15.5 3.09996V15.5H27.9C27.9044 17.129 27.5858 18.743 26.9624 20.248C26.339 21.753 25.4233 23.12 24.2683 24.268Z" fill="#FAF1F1"/>
</svg>
