<svg width="24" height="32" viewBox="0 0 24 32" fill="none" xmlns="http://www.w3.org/2000/svg">
<path d="M16 1C16 2.865 16.3438 4.583 17.0312 6.156C17.7188 7.729 18.7083 9.177 20 10.5C21.2917 11.823 22.2812 13.271 22.9688 14.844C23.6562 16.417 24 18.135 24 20C24 21.104 23.8594 22.167 23.5781 23.188C23.2969 24.208 22.8906 25.161 22.3594 26.047C21.8281 26.932 21.2031 27.745 20.4844 28.484C19.7656 29.224 18.9583 29.849 18.0625 30.359C17.1667 30.87 16.2083 31.271 15.1875 31.562C14.1667 31.854 13.1042 32 12 32C10.8958 32 9.8333 31.859 8.8125 31.578C7.7917 31.297 6.8385 30.891 5.9531 30.359C5.0677 29.828 4.2552 29.203 3.5156 28.484C2.776 27.766 2.151 26.958 1.6406 26.062C1.1302 25.167 0.7292 24.208 0.4375 23.188C0.1458 22.167 0 21.104 0 20C0 19.125 0.0938004 18.266 0.2812 17.422C0.4688 16.578 0.7396 15.771 1.0938 15C1.4479 14.229 1.8854 13.495 2.4062 12.797C2.9271 12.099 3.5156 11.469 4.1719 10.906C4.2448 11.302 4.3438 11.708 4.4688 12.125C4.5938 12.542 4.7396 12.958 4.9062 13.375C5.0729 13.792 5.2708 14.188 5.5 14.562C5.7292 14.938 5.9688 15.286 6.2188 15.609C6.4271 15.87 6.6979 16 7.0312 16C7.3125 16 7.5469 15.901 7.7344 15.703C7.9219 15.505 8.0208 15.266 8.0312 14.984C8.0312 14.87 8.0156 14.766 7.9844 14.672C7.9531 14.578 7.901 14.484 7.8281 14.391C7.5365 13.964 7.2812 13.542 7.0625 13.125C6.8438 12.708 6.651 12.281 6.4844 11.844C6.3177 11.406 6.1979 10.953 6.125 10.484C6.0521 10.016 6.0104 9.521 6 9C6 7.76 6.2344 6.594 6.7031 5.5C7.1719 4.406 7.8177 3.453 8.6406 2.641C9.4635 1.828 10.4167 1.188 11.5 0.719002C12.5833 0.250002 13.75 0.01 15 0H16V1ZM12 30C13.3854 30 14.6823 29.74 15.8906 29.219C17.099 28.698 18.1615 27.984 19.0781 27.078C19.9948 26.172 20.7083 25.115 21.2188 23.906C21.7292 22.698 21.9896 21.396 22 20C22 18.427 21.7083 16.964 21.125 15.609C20.5417 14.255 19.6979 13.026 18.5938 11.922C17.2396 10.557 16.1771 9.052 15.4062 7.406C14.6354 5.76 14.1771 3.979 14.0312 2.062C13.1667 2.177 12.3698 2.438 11.6406 2.844C10.9115 3.25 10.2708 3.766 9.7188 4.391C9.1667 5.016 8.7448 5.719 8.4531 6.5C8.1615 7.281 8.0104 8.115 8 9C8 9.812 8.1198 10.547 8.3594 11.203C8.599 11.859 8.9531 12.516 9.4219 13.172C9.6198 13.443 9.7708 13.724 9.875 14.016C9.9792 14.307 10.0365 14.63 10.0469 14.984C10.0469 15.401 9.9688 15.792 9.8125 16.156C9.6562 16.521 9.4375 16.839 9.1562 17.109C8.875 17.38 8.5573 17.599 8.2031 17.766C7.849 17.932 7.4583 18.01 7.0312 18C6.5521 18 6.1302 17.911 5.7656 17.734C5.401 17.557 5.0781 17.318 4.7969 17.016C4.5156 16.714 4.2656 16.375 4.0469 16C3.8281 15.625 3.6198 15.25 3.4219 14.875C2.9427 15.635 2.5885 16.453 2.3594 17.328C2.1302 18.203 2.0104 19.094 2 20C2 21.385 2.2604 22.682 2.7812 23.891C3.3021 25.099 4.0156 26.161 4.9219 27.078C5.8281 27.995 6.8854 28.708 8.0938 29.219C9.3021 29.729 10.6042 29.99 12 30Z" fill="#FAF1F1"/>
</svg>
