<svg width="30" height="21" viewBox="0 0 30 21" fill="none" xmlns="http://www.w3.org/2000/svg">
<path d="M6.75 16.846C8.06 16.846 9.3335 16.999 10.5705 17.304C11.8075 17.609 13.034 18.106 14.25 18.795V3.87199C13.167 3.08899 11.9735 2.5 10.6695 2.108C9.3665 1.717 8.06 1.521 6.75 1.521C5.754 1.521 4.8025 1.605 3.8955 1.772C2.9885 1.939 2.19 2.22001 1.5 2.61301V17.817C2.202 17.512 3.0275 17.274 3.9765 17.102C4.9255 16.929 5.85 16.845 6.75 16.846ZM15.75 18.793C16.965 18.105 18.1915 17.608 19.4295 17.303C20.6675 16.997 21.941 16.845 23.25 16.846C24.15 16.846 25.0745 16.932 26.0235 17.103C26.9735 17.275 27.799 17.512 28.5 17.817V2.61301C27.81 2.21901 27.0115 1.938 26.1045 1.77C25.1975 1.603 24.246 1.52 23.25 1.521C21.94 1.521 20.6335 1.717 19.3305 2.108C18.0265 2.5 16.833 3.08899 15.75 3.87199V18.793ZM15 20.998C13.78 20.153 12.47 19.503 11.07 19.049C9.67 18.594 8.23 18.367 6.75 18.366C5.521 18.366 4.311 18.542 3.12 18.893C1.929 19.245 0.889 19.71 0 20.287V1.685C0.85 1.158 1.87 0.745006 3.06 0.447006C4.25 0.149006 5.48 0 6.75 0C8.22 0 9.653 0.214005 11.049 0.643005C12.445 1.07201 13.762 1.69601 15 2.51401C16.237 1.69601 17.554 1.07201 18.951 0.643005C20.348 0.214005 21.781 0 23.25 0C24.521 0 25.7465 0.149006 26.9265 0.447006C28.1065 0.745006 29.131 1.15701 30 1.68401V20.287C29.115 19.709 28.076 19.245 26.883 18.895C25.69 18.545 24.479 18.369 23.25 18.367C21.77 18.367 20.33 18.595 18.93 19.05C17.53 19.505 16.22 20.154 15 20.998ZM17.8275 7.04201V5.62801C18.6325 5.21401 19.4955 4.90401 20.4165 4.69701C21.3375 4.49001 22.282 4.386 23.25 4.386C23.804 4.386 24.3355 4.422 24.8445 4.494C25.3545 4.566 25.8805 4.669 26.4225 4.802V6.183C25.8995 6.013 25.3895 5.896 24.8925 5.83C24.3955 5.764 23.848 5.732 23.25 5.733C22.28 5.733 21.334 5.843 20.412 6.064C19.49 6.285 18.6285 6.61101 17.8275 7.04201ZM17.8275 15.35V13.874C18.5945 13.462 19.4525 13.152 20.4015 12.946C21.3505 12.741 22.3 12.637 23.25 12.635C23.804 12.635 24.3355 12.671 24.8445 12.743C25.3545 12.816 25.8805 12.918 26.4225 13.05V14.431C25.8995 14.262 25.3895 14.144 24.8925 14.078C24.3955 14.012 23.848 13.98 23.25 13.981C22.28 13.981 21.334 14.099 20.412 14.337C19.49 14.574 18.6285 14.912 17.8275 15.35ZM17.8275 11.225V9.75101C18.6325 9.33701 19.4955 9.02701 20.4165 8.82201C21.3375 8.61601 22.282 8.512 23.25 8.511C23.804 8.511 24.3355 8.547 24.8445 8.618C25.3545 8.691 25.8805 8.794 26.4225 8.927V10.306C25.8995 10.137 25.3895 10.02 24.8925 9.955C24.3955 9.89 23.848 9.857 23.25 9.856C22.28 9.856 21.334 9.977 20.412 10.218C19.49 10.459 18.6285 10.795 17.8275 11.225Z" fill="#FAF1F1"/>
</svg>
