<svg width="24" height="24" viewBox="0 0 24 24" fill="none" xmlns="http://www.w3.org/2000/svg">
<path d="M23.1106 5.336H19.9212L22.8505 2.40802C22.9331 2.32502 22.9987 2.22702 23.0434 2.11902C23.0881 2.01102 23.1111 1.89499 23.1111 1.77899C23.1111 1.66199 23.0881 1.54599 23.0434 1.43799C22.9987 1.32999 22.9331 1.23199 22.8505 1.14899C22.7679 1.06699 22.6698 1.00097 22.5618 0.95697C22.4539 0.91197 22.3381 0.888977 22.2213 0.888977C22.1044 0.888977 21.9887 0.91197 21.8808 0.95697C21.7728 1.00097 21.6747 1.06699 21.5921 1.14899L18.6639 4.07898V0.888977C18.6639 0.652977 18.5702 0.42701 18.4034 0.26001C18.2366 0.0940098 18.0104 0 17.7745 0C17.5386 0 17.3124 0.0940098 17.1456 0.26001C16.9789 0.42701 16.8852 0.652977 16.8852 0.888977V4.51001C15.53 3.72801 13.9547 3.414 12.4033 3.617C10.8518 3.821 9.41061 4.53001 8.30291 5.63501C3.84501 10.014 0.493211 20.429 0.166411 21.47C0.0123107 21.801 -0.0363906 22.171 0.0271094 22.531C0.0905094 22.89 0.26291 23.221 0.52101 23.479C0.77901 23.737 1.11021 23.909 1.46951 23.973C1.82891 24.036 2.19911 23.988 2.52981 23.834C3.57151 23.507 14.0003 20.151 18.3682 15.695C19.4725 14.587 20.1809 13.146 20.3837 11.595C20.5865 10.044 20.2723 8.46899 19.4899 7.11499H23.1106C23.3465 7.11499 23.5727 7.021 23.7395 6.854C23.9063 6.687 24 6.46098 24 6.22498C24 5.98898 23.9063 5.76301 23.7395 5.59601C23.5727 5.43001 23.3465 5.336 23.1106 5.336ZM17.0942 14.451C16.1003 15.465 14.7318 16.43 13.2199 17.312L10.3984 14.489C10.3158 14.407 10.2177 14.341 10.1097 14.296C10.0018 14.252 9.88611 14.229 9.76921 14.229C9.65231 14.229 9.53661 14.252 9.42871 14.296C9.32071 14.341 9.22261 14.407 9.14001 14.489C9.05731 14.572 8.99181 14.67 8.94711 14.778C8.90241 14.886 8.87931 15.001 8.87931 15.118C8.87931 15.235 8.90241 15.351 8.94711 15.459C8.99181 15.567 9.05731 15.665 9.14001 15.748L11.5957 18.203C7.05221 20.559 1.99961 22.141 1.92401 22.164C1.86921 22.182 1.81641 22.205 1.76611 22.233C1.79301 22.183 1.81491 22.13 1.83171 22.076C1.86391 21.973 4.94441 12.118 8.94651 7.54999L12.7007 11.304C12.8676 11.471 13.094 11.565 13.33 11.565C13.566 11.565 13.7923 11.471 13.9592 11.304C14.1261 11.137 14.2198 10.911 14.2198 10.675C14.2198 10.439 14.1261 10.213 13.9592 10.046L10.235 6.323C11.3261 5.547 12.6692 5.20901 13.9978 5.37701C15.3263 5.54501 16.5432 6.20598 17.4068 7.22998C18.2703 8.25298 18.7176 9.564 18.6597 10.901C18.6018 12.239 18.043 13.506 17.0942 14.451Z" fill="#FAF1F1"/>
</svg>
