<svg width="32" height="29" viewBox="0 0 32 29" fill="none" xmlns="http://www.w3.org/2000/svg">
<path d="M16.0001 14.37H1.35425C1.35425 21.666 10.5352 27.94 10.5352 27.94H16.0001" stroke="#FAF1F1" stroke-width="1.04167" stroke-linecap="round" stroke-linejoin="round"/>
<path d="M5.6167 16.038C5.6167 21.415 11.6555 25.383 11.6555 25.383M16.0002 14.37H30.646C30.646 21.666 21.4651 27.94 21.4651 27.94H16.0002M8.1579 14.37C7.0924 10.381 14.2174 7.63901 20.6109 6.79201L21.2363 5.64101L23.757 8.705L22.3739 8.929C21.697 11.154 18.3087 14.37 18.3087 14.37" stroke="#FAF1F1" stroke-width="1.04167" stroke-linecap="round" stroke-linejoin="round"/>
<path d="M9.27881 14.37C9.50681 12.317 11.8881 10.005 20.9733 7.23" stroke="#FAF1F1" stroke-width="1.04167" stroke-linecap="round" stroke-linejoin="round"/>
<path d="M21.2077 7.51601C17.7718 9.23701 13.766 11.215 10.9587 14.37M21.8782 8.329C18.3078 13.179 16.0001 14.37 16.0001 14.37M14.0249 14.37C16.1782 13.112 21.5378 7.915 21.5378 7.915M23.186 8.025L29.6389 2.79601C29.745 2.71101 29.8331 2.60501 29.8982 2.48501C29.9634 2.36501 30.0042 2.23301 30.0184 2.09801C30.0326 1.96201 30.0199 1.82501 29.981 1.69401C29.9421 1.56301 29.8777 1.44201 29.7917 1.33601C29.7059 1.23001 29.6001 1.142 29.4803 1.077C29.3605 1.012 29.229 0.971008 29.0935 0.957008C28.9579 0.942008 28.8208 0.955011 28.6901 0.994011C28.5595 1.03301 28.4377 1.09701 28.3319 1.18301L21.8782 6.41201" stroke="#FAF1F1" stroke-width="1.04167" stroke-linecap="round" stroke-linejoin="round"/>
<path d="M20.6116 6.79201L22.3738 8.929" stroke="#FAF1F1" stroke-width="1.04167" stroke-linecap="round" stroke-linejoin="round"/>
</svg>
