<svg width="111" height="105" viewBox="0 0 111 105" fill="none" xmlns="http://www.w3.org/2000/svg">
<path d="M100.478 103.568L67.0185 69.9599L74.0889 62.8595L107.548 96.4541C108.499 97.4089 108.974 98.5934 108.974 100.008C108.974 101.422 108.499 102.606 107.548 103.561C106.597 104.516 105.42 104.993 104.016 104.993C102.612 104.993 101.433 104.523 100.478 103.568ZM7.87669 103.561C6.92598 102.611 6.45062 101.429 6.45062 100.014C6.45062 98.6001 6.92598 97.4156 7.87669 96.4608L50.7054 53.4503L30.9137 33.7084C29.9496 34.6765 28.7368 35.1606 27.2752 35.1606C25.8136 35.1606 24.6008 34.6765 23.6367 33.7084L20.9579 30.891V43.76C20.9579 44.978 20.3981 45.8012 19.2786 46.2294C18.159 46.6577 17.1728 46.4436 16.3198 45.587L0.852975 30.0545C-1.98599e-07 29.1934 -0.213244 28.2008 0.213244 27.0765C0.639731 25.9522 1.45939 25.3901 2.67221 25.3901H15.4868L12.9745 22.8738C11.8994 21.7897 11.3619 20.507 11.3619 19.0258C11.3619 17.5446 11.8994 16.262 12.9745 15.1778L23.5035 4.59752C25.045 3.05386 26.731 1.90726 28.5613 1.15774C30.3872 0.412682 32.3353 0.0401532 34.4055 0.0401532C35.9427 0.0401532 37.4043 0.24538 38.7904 0.655832C40.1764 1.06628 41.5159 1.77119 42.8087 2.77055C43.4395 3.23901 43.8038 3.86807 43.9015 4.65774C43.9993 5.44742 43.7461 6.14787 43.1419 6.75908L34.3256 15.6128L37.9907 19.2935C38.9547 20.2616 39.4368 21.4796 39.4368 22.9474C39.4368 24.4152 38.9547 25.6332 37.9907 26.6013L57.7824 46.3432L74.8219 29.2314C73.7779 27.7457 73.0537 26.2266 72.6495 24.674C72.2452 23.1214 72.043 21.4171 72.043 19.5612C72.043 14.0959 73.9289 9.46941 77.7007 5.68164C81.4724 1.89388 86.0794 0 91.5215 0C92.1524 0 92.7077 0.0066923 93.1875 0.0200766C93.6628 0.0334609 94.2048 0.109306 94.8135 0.247611C95.471 0.497452 95.9152 0.979288 96.1462 1.69312C96.3773 2.40695 96.2351 3.02709 95.7198 3.55354L86.1771 13.1434C85.5951 13.7234 85.3041 14.3748 85.3041 15.0975C85.3041 15.8203 85.5929 16.4716 86.1704 17.0516L94.0205 24.9283C94.598 25.5127 95.2466 25.805 95.9663 25.805C96.686 25.805 97.3346 25.515 97.9122 24.935L107.461 15.3451C107.981 14.8187 108.599 14.667 109.314 14.8901C110.029 15.1131 110.509 15.5682 110.753 16.2553C110.891 16.8665 110.967 17.4108 110.98 17.8881C110.993 18.3655 111 18.9232 111 19.5612C111 25.0264 109.112 29.653 105.336 33.4407C101.568 37.233 96.9637 39.1291 91.5215 39.1291C89.6734 39.1291 87.9763 38.9283 86.4303 38.5268C84.8843 38.1252 83.3738 37.3936 81.8989 36.3317L14.9404 103.568C13.9941 104.523 12.8168 105 11.4085 105C10.0002 105 8.82074 104.523 7.87003 103.568" fill="#FAF1F1"/>
</svg>
