<svg width="26" height="26" viewBox="0 0 26 26" fill="none" xmlns="http://www.w3.org/2000/svg">
<path fill-rule="evenodd" clip-rule="evenodd" d="M21.3938 7.40277C21.9296 7.99427 21.7657 8.9021 21.1121 9.35999L17.5934 11.8285C16.9405 12.2864 16.0479 12.1015 15.4029 11.6335C14.677 11.1049 13.8055 10.8133 12.9076 10.7987C12.0098 10.7839 11.1291 11.0461 10.3856 11.5498C9.72481 11.9968 8.82709 12.1521 8.19009 11.6725L4.75448 9.08843C4.11748 8.60888 3.98315 7.69527 4.53854 7.12255C5.63834 5.98833 6.95905 5.09169 8.41905 4.48802C9.87905 3.88435 11.4473 3.58648 13.027 3.61281C14.6066 3.63914 16.1641 3.98911 17.6032 4.6411C19.0423 5.29309 20.3324 6.23253 21.3938 7.40277ZM20.1985 8.23838C19.2725 7.25429 18.1587 6.46578 16.9228 5.91946C15.6869 5.37313 14.3541 5.08006 13.003 5.05758C11.6519 5.03509 10.3101 5.28364 9.0567 5.78853C7.80332 6.29343 6.66386 7.04443 5.70565 7.99716L9.05531 10.5163C9.08606 10.5236 9.11791 10.525 9.1492 10.5206C9.26259 10.5105 9.42148 10.4585 9.57531 10.3545C10.5959 9.66304 11.81 9.31401 13.042 9.35782C13.0702 9.29876 13.1064 9.24384 13.1496 9.1946L15.1328 6.91382C15.2585 6.76921 15.4364 6.68043 15.6275 6.66702C15.8186 6.65361 16.0073 6.71667 16.1519 6.84232C16.2965 6.96798 16.3853 7.14593 16.3987 7.33704C16.4121 7.52815 16.349 7.71676 16.2234 7.86138L14.667 9.65105C15.2341 9.83921 15.7688 10.1138 16.2523 10.465C16.4025 10.574 16.5592 10.6311 16.6726 10.6455C16.7275 10.6528 16.7564 10.6477 16.7665 10.6448L20.1985 8.23838ZM16.773 10.6427L16.7665 10.6448C16.7694 10.6427 16.7723 10.6419 16.773 10.6427ZM9.04954 10.5141C9.04954 10.5141 9.0517 10.5141 9.05531 10.5163L9.04954 10.5141Z" fill="#FAF1F1"/>
<path fill-rule="evenodd" clip-rule="evenodd" d="M21.6574 26C22.3958 26 23.1063 25.7173 23.6427 25.2098C24.1792 24.7024 24.501 24.0088 24.542 23.2714L25.6657 3.04922C25.6875 2.65694 25.6291 2.26433 25.494 1.89541C25.3589 1.52649 25.1499 1.189 24.8799 0.903588C24.6099 0.618176 24.2845 0.390836 23.9237 0.235472C23.5628 0.0801075 23.1741 -1.62288e-05 22.7812 2.46558e-09H2.88829C2.49546 8.19797e-05 2.10678 0.0802781 1.746 0.235686C1.38522 0.391094 1.05993 0.618448 0.790008 0.903851C0.520086 1.18925 0.311206 1.52671 0.176138 1.89558C0.0410699 2.26446 -0.017349 2.657 0.00445287 3.04922L1.12751 23.2714C1.16849 24.0088 1.49027 24.7024 2.02673 25.2098C2.5632 25.7173 3.27362 26 4.01206 26H21.6574ZM4.01206 24.5556H21.6574C22.0267 24.5556 22.382 24.4141 22.6503 24.1602C22.9186 23.9063 23.0794 23.5593 23.0997 23.1906L24.2235 2.96833C24.2343 2.77225 24.205 2.57603 24.1374 2.39165C24.0698 2.20727 23.9653 2.03862 23.8303 1.89599C23.6953 1.75336 23.5326 1.63976 23.3522 1.56212C23.1719 1.48448 22.9776 1.44444 22.7812 1.44444H2.88829C2.69191 1.44444 2.49759 1.48448 2.31721 1.56212C2.13683 1.63976 1.97417 1.75336 1.83918 1.89599C1.7042 2.03862 1.59971 2.20727 1.53211 2.39165C1.4645 2.57603 1.43521 2.77225 1.44601 2.96833L2.56979 23.1906C2.5901 23.5593 2.75091 23.9063 3.01916 24.1602C3.28741 24.4141 3.64272 24.5556 4.01206 24.5556Z" fill="#FAF1F1"/>
</svg>
