<svg width="34" height="33" viewBox="0 0 34 33" fill="none" xmlns="http://www.w3.org/2000/svg">
<path d="M9.71429 9.77778C11.0025 9.77778 12.2379 9.2627 13.1488 8.34586C14.0597 7.42901 14.5714 6.1855 14.5714 4.88889C14.5714 3.59227 14.0597 2.34877 13.1488 1.43192C12.2379 0.515078 11.0025 0 9.71429 0C8.42609 0 7.19066 0.515078 6.27977 1.43192C5.36888 2.34877 4.85714 3.59227 4.85714 4.88889C4.85714 6.1855 5.36888 7.42901 6.27977 8.34586C7.19066 9.2627 8.42609 9.77778 9.71429 9.77778ZM0 15.2778C0 14.4674 0.319833 13.6902 0.88914 13.1172C1.45845 12.5441 2.23059 12.2222 3.03571 12.2222H10.7768C10.4753 13.0014 10.3208 13.8304 10.3214 14.6667C10.3214 16.94 11.4422 18.9506 13.1592 20.1667H10.3214C9.43345 20.1665 8.56244 20.4115 7.80307 20.8747C7.0437 21.338 6.42505 22.002 6.01436 22.7944C3.68779 22.1919 2.19907 21.0198 1.27986 19.69C-1.44754e-07 17.8383 0 15.9207 0 15.5833V15.2778ZM27.9856 22.7944C30.3122 22.1919 31.8009 21.0198 32.7201 19.69C34 17.8383 34 15.9194 34 15.5833V15.2778C34 14.4674 33.6802 13.6902 33.1109 13.1172C32.5416 12.5441 31.7694 12.2222 30.9643 12.2222H23.2232C23.5171 12.98 23.6786 13.8038 23.6786 14.6667C23.6786 16.94 22.5578 18.9506 20.8408 20.1667H23.6786C24.5665 20.1665 25.4376 20.4115 26.1969 20.8747C26.9563 21.338 27.575 22.002 27.9856 22.7944ZM29.1429 4.88889C29.1429 6.1855 28.6311 7.42901 27.7202 8.34586C26.8093 9.2627 25.5739 9.77778 24.2857 9.77778C22.9975 9.77778 21.7621 9.2627 20.8512 8.34586C19.9403 7.42901 19.4286 6.1855 19.4286 4.88889C19.4286 3.59227 19.9403 2.34877 20.8512 1.43192C21.7621 0.515078 22.9975 0 24.2857 0C25.5739 0 26.8093 0.515078 27.7202 1.43192C28.6311 2.34877 29.1429 3.59227 29.1429 4.88889ZM7.28571 25.0556C7.28571 24.2452 7.60555 23.468 8.17485 22.895C8.74416 22.3219 9.51631 22 10.3214 22H23.6786C24.0772 22 24.472 22.079 24.8403 22.2326C25.2086 22.3861 25.5433 22.6112 25.8251 22.895C26.107 23.1787 26.3306 23.5155 26.4832 23.8862C26.6358 24.257 26.7143 24.6543 26.7143 25.0556V25.3611C26.7143 25.6972 26.7143 27.6161 25.4344 29.4678C24.0987 31.4001 21.5609 33 17 33C12.4391 33 9.90129 31.4001 8.56557 29.4678C7.28571 27.6161 7.28571 25.6984 7.28571 25.3611V25.0556ZM17 19.5556C18.2882 19.5556 19.5236 19.0405 20.4345 18.1236C21.3454 17.2068 21.8571 15.9633 21.8571 14.6667C21.8571 13.3701 21.3454 12.1265 20.4345 11.2097C19.5236 10.2929 18.2882 9.77778 17 9.77778C15.7118 9.77778 14.4764 10.2929 13.5655 11.2097C12.6546 12.1265 12.1429 13.3701 12.1429 14.6667C12.1429 15.9633 12.6546 17.2068 13.5655 18.1236C14.4764 19.0405 15.7118 19.5556 17 19.5556Z" fill="#FAF1F1"/>
</svg>
