<svg width="32" height="32" viewBox="0 0 32 32" fill="none" xmlns="http://www.w3.org/2000/svg">
<path d="M24.1028 23.4721L24.1027 23.4686C24.1027 23.4358 24.1091 23.4032 24.1218 23.3728C24.1345 23.3425 24.1532 23.315 24.1766 23.2919L24.177 23.2915C24.8538 22.6268 26.2156 21.2833 27.6953 19.7852C27.7182 19.7621 27.74 19.7382 27.7608 19.7135C28.819 18.6825 29.5811 17.3851 29.966 15.9569C30.3636 14.482 30.3433 12.9256 29.9075 11.4616C29.4717 9.99757 28.6375 8.68351 27.498 7.66617C26.3585 6.64884 24.9587 5.96829 23.4548 5.70053L23.4523 5.70008C23.1562 5.648 22.8927 5.48096 22.7193 5.2354L22.7172 5.23249C21.9555 4.16058 20.9482 3.28655 19.7797 2.68341C18.6112 2.08028 17.3153 1.76556 16.0003 1.76556C14.6853 1.76556 13.3894 2.08028 12.2209 2.68341C11.0523 3.28655 10.0451 4.16058 9.2834 5.23249L9.28134 5.2354C9.10789 5.48096 8.8444 5.648 8.5483 5.70008L8.54587 5.70051C7.04193 5.96815 5.642 6.64861 4.50243 7.6659C3.36286 8.68318 2.52852 9.99723 2.09261 11.4613C1.65669 12.9253 1.63636 14.4817 2.03387 15.9567C2.41835 17.3832 3.17904 18.6792 4.23517 19.7098C4.25706 19.7359 4.2801 19.7612 4.30427 19.7856C5.4685 20.9633 6.64146 22.1322 7.82306 23.2924L7.82325 23.2926C7.84671 23.3156 7.86534 23.3431 7.87803 23.3735C7.89071 23.4038 7.89721 23.4364 7.89713 23.4692V23.4721V27.8125C7.89713 28.5167 8.17689 29.1921 8.67487 29.6901C9.17284 30.1881 9.84823 30.4678 10.5525 30.4678H21.4467C22.151 30.4678 22.8263 30.1881 23.3243 29.6901C23.8212 29.1933 24.1028 28.5183 24.1028 27.8125L24.1028 23.4721Z" stroke="#FAF1F1" stroke-width="2.5" stroke-linecap="round" stroke-linejoin="round"/>
<mask id="path-2-outside-1_1_161" maskUnits="userSpaceOnUse" x="9.99211" y="8.17108" width="12" height="24" fill="black">
<rect fill="white" x="9.99211" y="8.17108" width="12" height="24"/>
<path d="M19.0084 29.2178V14.1785C19.0084 13.7835 18.9306 13.3924 18.7794 13.0275C18.6282 12.6625 18.4066 12.331 18.1273 12.0517C17.8479 11.7724 17.5163 11.5509 17.1514 11.3998C16.7864 11.2487 16.3953 11.171 16.0003 11.1711C15.6052 11.171 15.2141 11.2487 14.8491 11.3998C14.4842 11.5509 14.1526 11.7724 13.8732 12.0517C13.5939 12.331 13.3723 12.6625 13.2211 13.0275C13.0699 13.3924 12.9921 13.7835 12.9921 14.1785V29.2178"/>
</mask>
<path d="M16.5084 29.2178C16.5084 30.5985 17.6277 31.7178 19.0084 31.7178C20.3891 31.7178 21.5084 30.5985 21.5084 29.2178H16.5084ZM19.0084 14.1785L16.5084 14.1785V14.1785H19.0084ZM16.0003 11.1711L15.9997 13.6711L16.0008 13.6711L16.0003 11.1711ZM12.9921 14.1785L15.4921 14.1785V14.1785L12.9921 14.1785ZM10.4921 29.2178C10.4921 30.5985 11.6114 31.7178 12.9921 31.7178C14.3728 31.7178 15.4921 30.5985 15.4921 29.2178H10.4921ZM21.5084 29.2178V14.1785H16.5084V29.2178H21.5084ZM21.5084 14.1785C21.5084 13.4552 21.3659 12.7389 21.089 12.0706L16.4698 13.9843C16.4953 14.0459 16.5084 14.1119 16.5084 14.1785L21.5084 14.1785ZM21.089 12.0706C20.8122 11.4023 20.4064 10.7951 19.8948 10.2837L16.3597 13.8197C16.4069 13.8668 16.4442 13.9227 16.4698 13.9843L21.089 12.0706ZM19.8948 10.2837C19.3833 9.77229 18.776 9.36664 18.1077 9.08994L16.1951 13.7097C16.2566 13.7352 16.3126 13.7725 16.3597 13.8197L19.8948 10.2837ZM18.1077 9.08994C17.4393 8.81324 16.723 8.67091 15.9997 8.67108L16.0008 13.6711C16.0675 13.6711 16.1335 13.6842 16.1951 13.7097L18.1077 9.08994ZM16.0008 8.67108C15.2775 8.67091 14.5612 8.81324 13.8928 9.08994L15.8054 13.7097C15.867 13.6842 15.933 13.6711 15.9997 13.6711L16.0008 8.67108ZM13.8928 9.08994C13.2245 9.36664 12.6172 9.77229 12.1057 10.2837L15.6408 13.8197C15.6879 13.7725 15.7439 13.7352 15.8054 13.7097L13.8928 9.08994ZM12.1057 10.2837C11.5941 10.7951 11.1883 11.4023 10.9115 12.0706L15.5307 13.9843C15.5563 13.9227 15.5936 13.8668 15.6408 13.8197L12.1057 10.2837ZM10.9115 12.0706C10.6346 12.7389 10.4921 13.4552 10.4921 14.1785L15.4921 14.1785C15.4921 14.1119 15.5052 14.0459 15.5307 13.9843L10.9115 12.0706ZM10.4921 14.1785V29.2178H15.4921V14.1785H10.4921Z" fill="#FAF1F1" mask="url(#path-2-outside-1_1_161)"/>
</svg>
