<svg width="34" height="34" viewBox="0 0 34 34" fill="none" xmlns="http://www.w3.org/2000/svg">
<path d="M23.8 13.6C23.8 15.4035 23.0836 17.1331 21.8083 18.4083C20.5331 19.6836 18.8035 20.4 17 20.4C15.1965 20.4 13.4669 19.6836 12.1917 18.4083C10.9164 17.1331 10.2 15.4035 10.2 13.6C10.2 11.7965 10.9164 10.0669 12.1917 8.79166C13.4669 7.51641 15.1965 6.79999 17 6.79999C18.8035 6.79999 20.5331 7.51641 21.8083 8.79166C23.0836 10.0669 23.8 11.7965 23.8 13.6Z" fill="#FAF1F1"/>
<path fill-rule="evenodd" clip-rule="evenodd" d="M16.3064 33.9864C7.23945 33.6226 0 26.1562 0 17C0 7.6109 7.6109 0 17 0C26.3891 0 34 7.6109 34 17C34 26.3891 26.3891 34 17 34C16.9224 34.0005 16.8447 34.0005 16.7671 34C16.6133 34 16.4594 33.9949 16.3064 33.9864ZM6.0911 27.727C5.964 27.362 5.92073 26.973 5.96452 26.589C6.00831 26.205 6.13803 25.8358 6.34404 25.5087C6.55006 25.1817 6.82708 24.9053 7.15455 24.7C7.48203 24.4946 7.85153 24.3657 8.23565 24.3228C14.8623 23.5892 19.1785 23.6555 25.7728 24.3381C26.1575 24.3781 26.5279 24.5054 26.8559 24.7103C27.1839 24.9151 27.4608 25.1921 27.6656 25.5201C27.8703 25.8482 27.9976 26.2187 28.0375 26.6033C28.0775 26.9879 28.0291 27.3766 27.8962 27.7397C30.7223 24.8803 32.3051 21.0204 32.3 17C32.3 8.55015 25.4499 1.7 17 1.7C8.55015 1.7 1.7 8.55015 1.7 17C1.7 21.1786 3.37535 24.9662 6.0911 27.727Z" fill="#FAF1F1"/>
</svg>
