<svg width="16" height="33" viewBox="0 0 16 33" fill="none" xmlns="http://www.w3.org/2000/svg">
<path d="M12.6351 13.1569H3.43506C3.35296 13.7289 3.17789 14.2688 2.90985 14.7765C2.63941 15.2842 2.29531 15.7365 1.87756 16.1334L3.08553 30.0557C3.13261 30.3467 3.25456 30.5955 3.45135 30.8021C3.64815 31.0088 3.89808 31.1114 4.20112 31.1102H11.8691C12.1709 31.1102 12.4208 31.0075 12.6188 30.8021C12.8156 30.5955 12.9376 30.3467 12.9847 30.0557L14.1926 16.1334C13.7749 15.729 13.4308 15.2748 13.1603 14.7708C12.8899 14.2669 12.7148 13.7289 12.6351 13.1569ZM2.69253 6.54255L2.19449 8.62135C2.49875 9.01821 2.76316 9.43712 2.98773 9.87808C3.2123 10.319 3.36141 10.782 3.43506 11.2671H12.6351C12.71 10.782 12.8537 10.3134 13.0662 9.86107C13.2786 9.40751 13.5485 8.99427 13.8757 8.62135L13.3776 6.54255H2.69253ZM4.18845 33C3.44713 33 2.79455 32.7392 2.23072 32.2176C1.66688 31.696 1.34814 31.0409 1.27449 30.2522L0.0103844 15.9406C-0.0197996 15.7063 0.0158175 15.4896 0.117236 15.2905C0.218654 15.0915 0.358706 14.9132 0.537395 14.7557C0.894773 14.4281 1.16945 14.0451 1.36142 13.6067C1.55339 13.1682 1.64998 12.7084 1.65118 12.2271C1.65118 11.795 1.57874 11.3761 1.43386 10.9704C1.29139 10.5647 1.07588 10.2107 0.787319 9.90831C0.601386 9.75083 0.467973 9.55555 0.38708 9.32247C0.306187 9.08939 0.298943 8.85947 0.365348 8.63269L1.02094 5.81686C1.08855 5.47165 1.26 5.19133 1.53528 4.97589C1.81056 4.76045 2.12326 4.65273 2.47339 4.65273H7.12957V1.88982H4.41302V0H11.6572V1.88982H8.94061V4.65273H13.5968C13.9421 4.65273 14.2445 4.75604 14.5041 4.96266C14.7637 5.16928 14.9303 5.45338 15.004 5.81497L15.6686 8.55898C15.7362 8.78576 15.7296 9.01569 15.6487 9.24877C15.5678 9.48185 15.4344 9.67713 15.2485 9.83461C14.9599 10.1307 14.7426 10.4797 14.5965 10.8816C14.4504 11.2835 14.3761 11.6992 14.3737 12.1289C14.3737 12.6202 14.4685 13.087 14.6581 13.5292C14.8476 13.9714 15.1132 14.3557 15.4549 14.682C15.6324 14.8407 15.7737 15.0196 15.8787 15.2187C15.9837 15.4178 16.0206 15.6345 15.9892 15.8688L14.7939 30.205C14.7214 30.9962 14.4051 31.6601 13.8449 32.1968C13.2847 32.7335 12.6267 33.0013 11.8709 33H4.18845Z" fill="#FAF1F1"/>
</svg>
